solid OpenSCAD_Model
  facet normal 1 -0 0
    outer loop
      vertex 9.3 9.3 75
      vertex 9.3 45 5
      vertex 9.3 45 75
    endloop
  endfacet
  facet normal 1 0 0
    outer loop
      vertex 9.3 45 5
      vertex 9.3 9.3 75
      vertex 9.3 9.3 5
    endloop
  endfacet
  facet normal 1 -0 0
    outer loop
      vertex 9.3 -45 75
      vertex 9.3 -9.3 5
      vertex 9.3 -9.3 75
    endloop
  endfacet
  facet normal 1 0 0
    outer loop
      vertex 9.3 -9.3 5
      vertex 9.3 -45 75
      vertex 9.3 -45 5
    endloop
  endfacet
  facet normal 0 0 1
    outer loop
      vertex -9.3 9.3 75
      vertex -7.3 45 75
      vertex -9.3 45 75
    endloop
  endfacet
  facet normal 0 0 1
    outer loop
      vertex -7.3 45 75
      vertex -9.3 9.3 75
      vertex -7.3 7.3 75
    endloop
  endfacet
  facet normal 0 0 1
    outer loop
      vertex -45 7.3 75
      vertex -9.3 9.3 75
      vertex -45 9.3 75
    endloop
  endfacet
  facet normal 0 0 1
    outer loop
      vertex -9.3 9.3 75
      vertex -45 7.3 75
      vertex -7.3 7.3 75
    endloop
  endfacet
  facet normal 0 0 1
    outer loop
      vertex 9.3 45 75
      vertex 7.3 45 75
      vertex 9.3 9.3 75
    endloop
  endfacet
  facet normal -0 0 1
    outer loop
      vertex 9.3 9.3 75
      vertex 45 7.3 75
      vertex 45 9.3 75
    endloop
  endfacet
  facet normal 0 0 1
    outer loop
      vertex 9.3 9.3 75
      vertex 7.3 7.3 75
      vertex 45 7.3 75
    endloop
  endfacet
  facet normal 0 0 1
    outer loop
      vertex 7.3 7.3 75
      vertex 9.3 9.3 75
      vertex 7.3 45 75
    endloop
  endfacet
  facet normal 0 0 1
    outer loop
      vertex -7.3 -7.3 75
      vertex -9.3 -9.3 75
      vertex -7.3 -45 75
    endloop
  endfacet
  facet normal -0 0 1
    outer loop
      vertex -45 -7.3 75
      vertex -9.3 -9.3 75
      vertex -7.3 -7.3 75
    endloop
  endfacet
  facet normal 0 0 1
    outer loop
      vertex -9.3 -9.3 75
      vertex -45 -7.3 75
      vertex -45 -9.3 75
    endloop
  endfacet
  facet normal 0 0 1
    outer loop
      vertex -7.3 -45 75
      vertex -9.3 -9.3 75
      vertex -9.3 -45 75
    endloop
  endfacet
  facet normal 0 0 1
    outer loop
      vertex 45 -7.3 75
      vertex 9.3 -9.3 75
      vertex 45 -9.3 75
    endloop
  endfacet
  facet normal -0 0 1
    outer loop
      vertex 7.3 -7.3 75
      vertex 9.3 -9.3 75
      vertex 45 -7.3 75
    endloop
  endfacet
  facet normal 0 0 1
    outer loop
      vertex 7.3 -45 75
      vertex 9.3 -9.3 75
      vertex 7.3 -7.3 75
    endloop
  endfacet
  facet normal 0 0 1
    outer loop
      vertex 9.3 -9.3 75
      vertex 7.3 -45 75
      vertex 9.3 -45 75
    endloop
  endfacet
  facet normal 0 0 -1
    outer loop
      vertex 47.44 -2.3866 0
      vertex 47.44 2.3866 0
      vertex 47.5 0 0
    endloop
  endfacet
  facet normal 0 0 -1
    outer loop
      vertex 47.2602 -4.76718 0
      vertex 47.44 2.3866 0
      vertex 47.44 -2.3866 0
    endloop
  endfacet
  facet normal 0 0 -1
    outer loop
      vertex 47.2602 -4.76718 0
      vertex 47.2602 4.76718 0
      vertex 47.44 2.3866 0
    endloop
  endfacet
  facet normal 0 0 -1
    outer loop
      vertex 46.961 -7.13571 0
      vertex 47.2602 4.76718 0
      vertex 47.2602 -4.76718 0
    endloop
  endfacet
  facet normal 0 0 -1
    outer loop
      vertex 46.961 -7.13571 0
      vertex 46.961 7.13571 0
      vertex 47.2602 4.76718 0
    endloop
  endfacet
  facet normal 0 0 -1
    outer loop
      vertex 46.5431 -9.48622 0
      vertex 46.961 7.13571 0
      vertex 46.961 -7.13571 0
    endloop
  endfacet
  facet normal 0 0 -1
    outer loop
      vertex 46.5431 -9.48622 0
      vertex 46.5431 9.48622 0
      vertex 46.961 7.13571 0
    endloop
  endfacet
  facet normal 0 0 -1
    outer loop
      vertex 46.0077 -11.8128 0
      vertex 46.5431 9.48622 0
      vertex 46.5431 -9.48622 0
    endloop
  endfacet
  facet normal 0 0 -1
    outer loop
      vertex 46.0077 -11.8128 0
      vertex 46.0077 11.8128 0
      vertex 46.5431 9.48622 0
    endloop
  endfacet
  facet normal 0 0 -1
    outer loop
      vertex 45.3561 -14.1095 0
      vertex 46.0077 11.8128 0
      vertex 46.0077 -11.8128 0
    endloop
  endfacet
  facet normal 0 0 -1
    outer loop
      vertex 45.3561 -14.1095 0
      vertex 45.3561 14.1095 0
      vertex 46.0077 11.8128 0
    endloop
  endfacet
  facet normal 0 0 -1
    outer loop
      vertex 44.5899 -16.3705 0
      vertex 45.3561 14.1095 0
      vertex 45.3561 -14.1095 0
    endloop
  endfacet
  facet normal 0 0 -1
    outer loop
      vertex 44.5899 -16.3705 0
      vertex 44.5899 16.3705 0
      vertex 45.3561 14.1095 0
    endloop
  endfacet
  facet normal 0 0 -1
    outer loop
      vertex 43.711 -18.5902 0
      vertex 44.5899 16.3705 0
      vertex 44.5899 -16.3705 0
    endloop
  endfacet
  facet normal 0 0 -1
    outer loop
      vertex 43.711 -18.5902 0
      vertex 43.711 18.5902 0
      vertex 44.5899 16.3705 0
    endloop
  endfacet
  facet normal 0 0 -1
    outer loop
      vertex 42.7217 -20.763 0
      vertex 43.711 18.5902 0
      vertex 43.711 -18.5902 0
    endloop
  endfacet
  facet normal 0 0 -1
    outer loop
      vertex 42.7217 -20.763 0
      vertex 42.7217 20.763 0
      vertex 43.711 18.5902 0
    endloop
  endfacet
  facet normal 0 0 -1
    outer loop
      vertex 41.6246 -22.8833 0
      vertex 42.7217 20.763 0
      vertex 42.7217 -20.763 0
    endloop
  endfacet
  facet normal 0 0 -1
    outer loop
      vertex 41.6246 -22.8833 0
      vertex 41.6246 22.8833 0
      vertex 42.7217 20.763 0
    endloop
  endfacet
  facet normal 0 0 -1
    outer loop
      vertex 40.4222 -24.9458 0
      vertex 41.6246 22.8833 0
      vertex 41.6246 -22.8833 0
    endloop
  endfacet
  facet normal 0 0 -1
    outer loop
      vertex 40.4222 -24.9458 0
      vertex 40.4222 24.9458 0
      vertex 41.6246 22.8833 0
    endloop
  endfacet
  facet normal 0 0 -1
    outer loop
      vertex 39.1178 -26.9453 0
      vertex 40.4222 24.9458 0
      vertex 40.4222 -24.9458 0
    endloop
  endfacet
  facet normal 0 0 -1
    outer loop
      vertex 39.1178 -26.9453 0
      vertex 39.1178 26.9453 0
      vertex 40.4222 24.9458 0
    endloop
  endfacet
  facet normal 0 0 -1
    outer loop
      vertex 37.7145 -28.8767 0
      vertex 39.1178 26.9453 0
      vertex 39.1178 -26.9453 0
    endloop
  endfacet
  facet normal 0 0 -1
    outer loop
      vertex 37.7145 -28.8767 0
      vertex 37.7145 28.8767 0
      vertex 39.1178 26.9453 0
    endloop
  endfacet
  facet normal 0 0 -1
    outer loop
      vertex 36.216 -30.7352 0
      vertex 37.7145 28.8767 0
      vertex 37.7145 -28.8767 0
    endloop
  endfacet
  facet normal 0 0 -1
    outer loop
      vertex 36.216 -30.7352 0
      vertex 36.216 30.7352 0
      vertex 37.7145 28.8767 0
    endloop
  endfacet
  facet normal 0 0 -1
    outer loop
      vertex 34.626 -32.516 0
      vertex 36.216 30.7352 0
      vertex 36.216 -30.7352 0
    endloop
  endfacet
  facet normal 0 0 -1
    outer loop
      vertex 34.626 -32.516 0
      vertex 34.626 32.516 0
      vertex 36.216 30.7352 0
    endloop
  endfacet
  facet normal 0 0 -1
    outer loop
      vertex 32.9485 -34.2147 0
      vertex 34.626 32.516 0
      vertex 34.626 -32.516 0
    endloop
  endfacet
  facet normal 0 0 -1
    outer loop
      vertex 32.9485 -34.2147 0
      vertex 32.9485 34.2147 0
      vertex 34.626 32.516 0
    endloop
  endfacet
  facet normal 0 0 -1
    outer loop
      vertex 31.1878 -35.8269 0
      vertex 32.9485 34.2147 0
      vertex 32.9485 -34.2147 0
    endloop
  endfacet
  facet normal 0 0 -1
    outer loop
      vertex 31.1878 -35.8269 0
      vertex 31.1878 35.8269 0
      vertex 32.9485 34.2147 0
    endloop
  endfacet
  facet normal 0 0 -1
    outer loop
      vertex 29.3483 -37.3487 0
      vertex 31.1878 35.8269 0
      vertex 31.1878 -35.8269 0
    endloop
  endfacet
  facet normal 0 0 -1
    outer loop
      vertex 29.3483 -37.3487 0
      vertex 29.3483 37.3487 0
      vertex 31.1878 35.8269 0
    endloop
  endfacet
  facet normal 0 0 -1
    outer loop
      vertex 27.4347 -38.7761 0
      vertex 29.3483 37.3487 0
      vertex 29.3483 -37.3487 0
    endloop
  endfacet
  facet normal 0 0 -1
    outer loop
      vertex 27.4347 -38.7761 0
      vertex 27.4347 38.7761 0
      vertex 29.3483 37.3487 0
    endloop
  endfacet
  facet normal 0 0 -1
    outer loop
      vertex 25.4518 -40.1056 0
      vertex 27.4347 38.7761 0
      vertex 27.4347 -38.7761 0
    endloop
  endfacet
  facet normal 0 0 -1
    outer loop
      vertex 25.4518 -40.1056 0
      vertex 25.4518 40.1056 0
      vertex 27.4347 38.7761 0
    endloop
  endfacet
  facet normal 0 0 -1
    outer loop
      vertex 23.4045 -41.3337 0
      vertex 25.4518 40.1056 0
      vertex 25.4518 -40.1056 0
    endloop
  endfacet
  facet normal 0 0 -1
    outer loop
      vertex 23.4045 -41.3337 0
      vertex 23.4045 41.3337 0
      vertex 25.4518 40.1056 0
    endloop
  endfacet
  facet normal 0 0 -1
    outer loop
      vertex 21.2982 -42.4575 0
      vertex 23.4045 41.3337 0
      vertex 23.4045 -41.3337 0
    endloop
  endfacet
  facet normal 0 0 -1
    outer loop
      vertex 21.2982 -42.4575 0
      vertex 21.2982 42.4575 0
      vertex 23.4045 41.3337 0
    endloop
  endfacet
  facet normal 0 0 -1
    outer loop
      vertex 19.1381 -43.474 0
      vertex 21.2982 42.4575 0
      vertex 21.2982 -42.4575 0
    endloop
  endfacet
  facet normal 0 0 -1
    outer loop
      vertex 19.1381 -43.474 0
      vertex 19.1381 43.474 0
      vertex 21.2982 42.4575 0
    endloop
  endfacet
  facet normal 0 0 -1
    outer loop
      vertex 16.9296 -44.3806 0
      vertex 19.1381 43.474 0
      vertex 19.1381 -43.474 0
    endloop
  endfacet
  facet normal 0 0 -1
    outer loop
      vertex 16.9296 -44.3806 0
      vertex 16.9296 44.3806 0
      vertex 19.1381 43.474 0
    endloop
  endfacet
  facet normal 0 0 -1
    outer loop
      vertex 14.6783 -45.1752 0
      vertex 16.9296 44.3806 0
      vertex 16.9296 -44.3806 0
    endloop
  endfacet
  facet normal 0 0 -1
    outer loop
      vertex 14.6783 -45.1752 0
      vertex 14.6783 45.1752 0
      vertex 16.9296 44.3806 0
    endloop
  endfacet
  facet normal 0 0 -1
    outer loop
      vertex 12.39 -45.8556 0
      vertex 14.6783 45.1752 0
      vertex 14.6783 -45.1752 0
    endloop
  endfacet
  facet normal 0 0 -1
    outer loop
      vertex 12.39 -45.8556 0
      vertex 12.39 45.8556 0
      vertex 14.6783 45.1752 0
    endloop
  endfacet
  facet normal 0 0 -1
    outer loop
      vertex 10.0703 -46.4202 0
      vertex 12.39 45.8556 0
      vertex 12.39 -45.8556 0
    endloop
  endfacet
  facet normal 0 0 -1
    outer loop
      vertex 10.0703 -46.4202 0
      vertex 10.0703 46.4202 0
      vertex 12.39 45.8556 0
    endloop
  endfacet
  facet normal 0 0 -1
    outer loop
      vertex 7.72526 -46.8676 0
      vertex 10.0703 46.4202 0
      vertex 10.0703 -46.4202 0
    endloop
  endfacet
  facet normal 0 0 -1
    outer loop
      vertex 7.72526 -46.8676 0
      vertex 7.72526 46.8676 0
      vertex 10.0703 46.4202 0
    endloop
  endfacet
  facet normal 0 0 -1
    outer loop
      vertex 5.36068 -47.1965 0
      vertex 7.72526 46.8676 0
      vertex 7.72526 -46.8676 0
    endloop
  endfacet
  facet normal 0 0 -1
    outer loop
      vertex 5.36068 -47.1965 0
      vertex 5.36068 47.1965 0
      vertex 7.72526 46.8676 0
    endloop
  endfacet
  facet normal 0 0 -1
    outer loop
      vertex 2.98255 -47.4063 0
      vertex 5.36068 47.1965 0
      vertex 5.36068 -47.1965 0
    endloop
  endfacet
  facet normal 0 0 -1
    outer loop
      vertex 2.98255 -47.4063 0
      vertex 2.98255 47.4063 0
      vertex 5.36068 47.1965 0
    endloop
  endfacet
  facet normal 0 0 -1
    outer loop
      vertex 0.596887 -47.4963 0
      vertex 2.98255 47.4063 0
      vertex 2.98255 -47.4063 0
    endloop
  endfacet
  facet normal 0 0 -1
    outer loop
      vertex 0.596887 -47.4963 0
      vertex 0.596887 47.4963 0
      vertex 2.98255 47.4063 0
    endloop
  endfacet
  facet normal 0 0 -1
    outer loop
      vertex -1.79028 -47.4662 0
      vertex 0.596887 47.4963 0
      vertex 0.596887 -47.4963 0
    endloop
  endfacet
  facet normal 0 0 -1
    outer loop
      vertex -1.79028 -47.4662 0
      vertex -1.79028 47.4662 0
      vertex 0.596887 47.4963 0
    endloop
  endfacet
  facet normal 0 0 -1
    outer loop
      vertex -4.17293 -47.3163 0
      vertex -1.79028 47.4662 0
      vertex -1.79028 -47.4662 0
    endloop
  endfacet
  facet normal 0 0 -1
    outer loop
      vertex -4.17293 -47.3163 0
      vertex -4.17293 47.3163 0
      vertex -1.79028 47.4662 0
    endloop
  endfacet
  facet normal 0 0 -1
    outer loop
      vertex -6.54504 -47.0469 0
      vertex -4.17293 47.3163 0
      vertex -4.17293 -47.3163 0
    endloop
  endfacet
  facet normal 0 0 -1
    outer loop
      vertex -6.54504 -47.0469 0
      vertex -6.54504 47.0469 0
      vertex -4.17293 47.3163 0
    endloop
  endfacet
  facet normal 0 0 -1
    outer loop
      vertex -8.90061 -46.6586 0
      vertex -6.54504 47.0469 0
      vertex -6.54504 -47.0469 0
    endloop
  endfacet
  facet normal 0 0 -1
    outer loop
      vertex -8.90061 -46.6586 0
      vertex -8.90061 46.6586 0
      vertex -6.54504 47.0469 0
    endloop
  endfacet
  facet normal 0 0 -1
    outer loop
      vertex -11.2337 -46.1525 0
      vertex -8.90061 46.6586 0
      vertex -8.90061 -46.6586 0
    endloop
  endfacet
  facet normal 0 0 -1
    outer loop
      vertex -11.2337 -46.1525 0
      vertex -11.2337 46.1525 0
      vertex -8.90061 46.6586 0
    endloop
  endfacet
  facet normal 0 0 -1
    outer loop
      vertex -13.5384 -45.5298 0
      vertex -11.2337 46.1525 0
      vertex -11.2337 -46.1525 0
    endloop
  endfacet
  facet normal 0 0 -1
    outer loop
      vertex -13.5384 -45.5298 0
      vertex -13.5384 45.5298 0
      vertex -11.2337 46.1525 0
    endloop
  endfacet
  facet normal 0 0 -1
    outer loop
      vertex -15.8089 -44.792 0
      vertex -13.5384 45.5298 0
      vertex -13.5384 -45.5298 0
    endloop
  endfacet
  facet normal 0 0 -1
    outer loop
      vertex -15.8089 -44.792 0
      vertex -15.8089 44.792 0
      vertex -13.5384 45.5298 0
    endloop
  endfacet
  facet normal 0 0 -1
    outer loop
      vertex -18.0395 -43.9412 0
      vertex -15.8089 44.792 0
      vertex -15.8089 -44.792 0
    endloop
  endfacet
  facet normal 0 0 -1
    outer loop
      vertex -18.0395 -43.9412 0
      vertex -18.0395 43.9412 0
      vertex -15.8089 44.792 0
    endloop
  endfacet
  facet normal 0 0 -1
    outer loop
      vertex -20.2245 -42.9793 0
      vertex -18.0395 43.9412 0
      vertex -18.0395 -43.9412 0
    endloop
  endfacet
  facet normal 0 0 -1
    outer loop
      vertex -20.2245 -42.9793 0
      vertex -20.2245 42.9793 0
      vertex -18.0395 43.9412 0
    endloop
  endfacet
  facet normal 0 0 -1
    outer loop
      vertex -22.3584 -41.9088 0
      vertex -20.2245 42.9793 0
      vertex -20.2245 -42.9793 0
    endloop
  endfacet
  facet normal 0 0 -1
    outer loop
      vertex -22.3584 -41.9088 0
      vertex -22.3584 41.9088 0
      vertex -20.2245 42.9793 0
    endloop
  endfacet
  facet normal 0 0 -1
    outer loop
      vertex -24.4359 -40.7325 0
      vertex -22.3584 41.9088 0
      vertex -22.3584 -41.9088 0
    endloop
  endfacet
  facet normal 0 0 -1
    outer loop
      vertex -24.4359 -40.7325 0
      vertex -24.4359 40.7325 0
      vertex -22.3584 41.9088 0
    endloop
  endfacet
  facet normal 0 0 -1
    outer loop
      vertex -26.4516 -39.4533 0
      vertex -24.4359 40.7325 0
      vertex -24.4359 -40.7325 0
    endloop
  endfacet
  facet normal 0 0 -1
    outer loop
      vertex -26.4516 -39.4533 0
      vertex -26.4516 39.4533 0
      vertex -24.4359 40.7325 0
    endloop
  endfacet
  facet normal 0 0 -1
    outer loop
      vertex -28.4005 -38.0744 0
      vertex -26.4516 39.4533 0
      vertex -26.4516 -39.4533 0
    endloop
  endfacet
  facet normal 0 0 -1
    outer loop
      vertex -28.4005 -38.0744 0
      vertex -28.4005 38.0744 0
      vertex -26.4516 39.4533 0
    endloop
  endfacet
  facet normal 0 0 -1
    outer loop
      vertex -30.2776 -36.5994 0
      vertex -28.4005 38.0744 0
      vertex -28.4005 -38.0744 0
    endloop
  endfacet
  facet normal 0 0 -1
    outer loop
      vertex -30.2776 -36.5994 0
      vertex -30.2776 36.5994 0
      vertex -28.4005 38.0744 0
    endloop
  endfacet
  facet normal 0 0 -1
    outer loop
      vertex -32.0783 -35.0319 0
      vertex -30.2776 36.5994 0
      vertex -30.2776 -36.5994 0
    endloop
  endfacet
  facet normal 0 0 -1
    outer loop
      vertex -32.0783 -35.0319 0
      vertex -32.0783 35.0319 0
      vertex -30.2776 36.5994 0
    endloop
  endfacet
  facet normal 0 0 -1
    outer loop
      vertex -33.7979 -33.3759 0
      vertex -32.0783 35.0319 0
      vertex -32.0783 -35.0319 0
    endloop
  endfacet
  facet normal 0 0 -1
    outer loop
      vertex -33.7979 -33.3759 0
      vertex -33.7979 33.3759 0
      vertex -32.0783 35.0319 0
    endloop
  endfacet
  facet normal 0 0 -1
    outer loop
      vertex -35.4322 -31.6356 0
      vertex -33.7979 33.3759 0
      vertex -33.7979 -33.3759 0
    endloop
  endfacet
  facet normal 0 0 -1
    outer loop
      vertex -35.4322 -31.6356 0
      vertex -35.4322 31.6356 0
      vertex -33.7979 33.3759 0
    endloop
  endfacet
  facet normal 0 0 -1
    outer loop
      vertex -36.977 -29.8153 0
      vertex -35.4322 31.6356 0
      vertex -35.4322 -31.6356 0
    endloop
  endfacet
  facet normal 0 0 -1
    outer loop
      vertex -36.977 -29.8153 0
      vertex -36.977 29.8153 0
      vertex -35.4322 31.6356 0
    endloop
  endfacet
  facet normal 0 0 -1
    outer loop
      vertex -38.4283 -27.9198 0
      vertex -36.977 29.8153 0
      vertex -36.977 -29.8153 0
    endloop
  endfacet
  facet normal 0 0 -1
    outer loop
      vertex -38.4283 -27.9198 0
      vertex -38.4283 27.9198 0
      vertex -36.977 29.8153 0
    endloop
  endfacet
  facet normal 0 0 -1
    outer loop
      vertex -39.7826 -25.9537 0
      vertex -38.4283 27.9198 0
      vertex -38.4283 -27.9198 0
    endloop
  endfacet
  facet normal 0 0 -1
    outer loop
      vertex -39.7826 -25.9537 0
      vertex -39.7826 25.9537 0
      vertex -38.4283 27.9198 0
    endloop
  endfacet
  facet normal 0 0 -1
    outer loop
      vertex -41.0364 -23.9221 0
      vertex -39.7826 25.9537 0
      vertex -39.7826 -25.9537 0
    endloop
  endfacet
  facet normal 0 0 -1
    outer loop
      vertex -41.0364 -23.9221 0
      vertex -41.0364 23.9221 0
      vertex -39.7826 25.9537 0
    endloop
  endfacet
  facet normal 0 0 -1
    outer loop
      vertex -42.1865 -21.83 0
      vertex -41.0364 23.9221 0
      vertex -41.0364 -23.9221 0
    endloop
  endfacet
  facet normal 0 0 -1
    outer loop
      vertex -42.1865 -21.83 0
      vertex -42.1865 21.83 0
      vertex -41.0364 23.9221 0
    endloop
  endfacet
  facet normal 0 0 -1
    outer loop
      vertex -43.23 -19.6828 0
      vertex -42.1865 21.83 0
      vertex -42.1865 -21.83 0
    endloop
  endfacet
  facet normal 0 0 -1
    outer loop
      vertex -43.23 -19.6828 0
      vertex -43.23 19.6828 0
      vertex -42.1865 21.83 0
    endloop
  endfacet
  facet normal 0 0 -1
    outer loop
      vertex -44.1644 -17.4859 0
      vertex -43.23 19.6828 0
      vertex -43.23 -19.6828 0
    endloop
  endfacet
  facet normal 0 0 -1
    outer loop
      vertex -44.1644 -17.4859 0
      vertex -44.1644 17.4859 0
      vertex -43.23 19.6828 0
    endloop
  endfacet
  facet normal 0 0 -1
    outer loop
      vertex -44.9872 -15.2448 0
      vertex -44.1644 17.4859 0
      vertex -44.1644 -17.4859 0
    endloop
  endfacet
  facet normal 0 0 -1
    outer loop
      vertex -44.9872 -15.2448 0
      vertex -44.9872 15.2448 0
      vertex -44.1644 17.4859 0
    endloop
  endfacet
  facet normal 0 0 -1
    outer loop
      vertex -45.6963 -12.9652 0
      vertex -44.9872 15.2448 0
      vertex -44.9872 -15.2448 0
    endloop
  endfacet
  facet normal 0 0 -1
    outer loop
      vertex -45.6963 -12.9652 0
      vertex -45.6963 12.9652 0
      vertex -44.9872 15.2448 0
    endloop
  endfacet
  facet normal 0 0 -1
    outer loop
      vertex -46.29 -10.6529 0
      vertex -45.6963 12.9652 0
      vertex -45.6963 -12.9652 0
    endloop
  endfacet
  facet normal 0 0 -1
    outer loop
      vertex -46.29 -10.6529 0
      vertex -46.29 10.6529 0
      vertex -45.6963 12.9652 0
    endloop
  endfacet
  facet normal 0 0 -1
    outer loop
      vertex -46.7668 -8.31359 0
      vertex -46.29 10.6529 0
      vertex -46.29 -10.6529 0
    endloop
  endfacet
  facet normal 0 0 -1
    outer loop
      vertex -46.7668 -8.31359 0
      vertex -46.7668 8.31359 0
      vertex -46.29 10.6529 0
    endloop
  endfacet
  facet normal 0 0 -1
    outer loop
      vertex -47.1255 -5.95333 0
      vertex -46.7668 8.31359 0
      vertex -46.7668 -8.31359 0
    endloop
  endfacet
  facet normal 0 0 -1
    outer loop
      vertex -47.1255 -5.95333 0
      vertex -47.1255 5.95333 0
      vertex -46.7668 8.31359 0
    endloop
  endfacet
  facet normal 0 0 -1
    outer loop
      vertex -47.365 -3.57802 0
      vertex -47.1255 5.95333 0
      vertex -47.1255 -5.95333 0
    endloop
  endfacet
  facet normal 0 0 -1
    outer loop
      vertex -47.365 -3.57802 0
      vertex -47.365 3.57802 0
      vertex -47.1255 5.95333 0
    endloop
  endfacet
  facet normal 0 0 -1
    outer loop
      vertex -47.485 -1.19368 0
      vertex -47.365 3.57802 0
      vertex -47.365 -3.57802 0
    endloop
  endfacet
  facet normal 0 0 -1
    outer loop
      vertex -47.365 3.57802 0
      vertex -47.485 -1.19368 0
      vertex -47.485 1.19368 0
    endloop
  endfacet
  facet normal -1 0 0
    outer loop
      vertex -9.3 9.3 5
      vertex -9.3 45 75
      vertex -9.3 45 5
    endloop
  endfacet
  facet normal -1 -0 0
    outer loop
      vertex -9.3 45 75
      vertex -9.3 9.3 5
      vertex -9.3 9.3 75
    endloop
  endfacet
  facet normal -1 0 0
    outer loop
      vertex -9.3 -45 5
      vertex -9.3 -9.3 75
      vertex -9.3 -9.3 5
    endloop
  endfacet
  facet normal -1 -0 0
    outer loop
      vertex -9.3 -9.3 75
      vertex -9.3 -45 5
      vertex -9.3 -45 75
    endloop
  endfacet
  facet normal 0 1 0
    outer loop
      vertex 9.3 45 75
      vertex 7.3 45 72.2
      vertex 7.3 45 75
    endloop
  endfacet
  facet normal 0 1 0
    outer loop
      vertex 7.3 45 72.2
      vertex 9.3 45 5
      vertex -7.3 45 72.2
    endloop
  endfacet
  facet normal 0 1 -0
    outer loop
      vertex 9.3 45 5
      vertex 7.3 45 72.2
      vertex 9.3 45 75
    endloop
  endfacet
  facet normal 0 1 -0
    outer loop
      vertex -7.3 45 72.2
      vertex -9.3 45 75
      vertex -7.3 45 75
    endloop
  endfacet
  facet normal 0 1 0
    outer loop
      vertex -9.3 45 5
      vertex -7.3 45 72.2
      vertex 9.3 45 5
    endloop
  endfacet
  facet normal 0 1 0
    outer loop
      vertex -7.3 45 72.2
      vertex -9.3 45 5
      vertex -9.3 45 75
    endloop
  endfacet
  facet normal 0 -1 0
    outer loop
      vertex -9.3 -45 75
      vertex -7.3 -45 72.2
      vertex -7.3 -45 75
    endloop
  endfacet
  facet normal 0 -1 -0
    outer loop
      vertex -7.3 -45 72.2
      vertex -9.3 -45 5
      vertex 7.3 -45 72.2
    endloop
  endfacet
  facet normal 0 -1 0
    outer loop
      vertex -9.3 -45 5
      vertex -7.3 -45 72.2
      vertex -9.3 -45 75
    endloop
  endfacet
  facet normal 0 -1 0
    outer loop
      vertex 7.3 -45 72.2
      vertex 9.3 -45 75
      vertex 7.3 -45 75
    endloop
  endfacet
  facet normal 0 -1 0
    outer loop
      vertex 9.3 -45 5
      vertex 7.3 -45 72.2
      vertex -9.3 -45 5
    endloop
  endfacet
  facet normal 0 -1 0
    outer loop
      vertex 7.3 -45 72.2
      vertex 9.3 -45 5
      vertex 9.3 -45 75
    endloop
  endfacet
  facet normal 0 -1 0
    outer loop
      vertex -45 -9.3 5
      vertex -9.3 -9.3 75
      vertex -45 -9.3 75
    endloop
  endfacet
  facet normal 0 -1 -0
    outer loop
      vertex -9.3 -9.3 75
      vertex -45 -9.3 5
      vertex -9.3 -9.3 5
    endloop
  endfacet
  facet normal 0 -1 0
    outer loop
      vertex 9.3 -9.3 5
      vertex 45 -9.3 75
      vertex 9.3 -9.3 75
    endloop
  endfacet
  facet normal 0 -1 -0
    outer loop
      vertex 45 -9.3 75
      vertex 9.3 -9.3 5
      vertex 45 -9.3 5
    endloop
  endfacet
  facet normal -1 0 0
    outer loop
      vertex -45 9.3 5
      vertex -45 7.3 72.2
      vertex -45 9.3 75
    endloop
  endfacet
  facet normal -1 0 0
    outer loop
      vertex -45 9.3 5
      vertex -45 -7.3 72.2
      vertex -45 7.3 72.2
    endloop
  endfacet
  facet normal -1 0 0
    outer loop
      vertex -45 -9.3 5
      vertex -45 -7.3 72.2
      vertex -45 9.3 5
    endloop
  endfacet
  facet normal -1 0 0
    outer loop
      vertex -45 -9.3 75
      vertex -45 -7.3 72.2
      vertex -45 -9.3 5
    endloop
  endfacet
  facet normal -1 0 0
    outer loop
      vertex -45 -7.3 72.2
      vertex -45 -9.3 75
      vertex -45 -7.3 75
    endloop
  endfacet
  facet normal -1 -0 0
    outer loop
      vertex -45 9.3 75
      vertex -45 7.3 72.2
      vertex -45 7.3 75
    endloop
  endfacet
  facet normal 1 0 0
    outer loop
      vertex 45 -7.3 75
      vertex 45 -9.3 75
      vertex 45 -7.3 72.2
    endloop
  endfacet
  facet normal 1 0 0
    outer loop
      vertex 45 7.3 72.2
      vertex 45 9.3 75
      vertex 45 7.3 75
    endloop
  endfacet
  facet normal 1 0 0
    outer loop
      vertex 45 9.3 75
      vertex 45 7.3 72.2
      vertex 45 9.3 5
    endloop
  endfacet
  facet normal 1 -0 0
    outer loop
      vertex 45 -7.3 72.2
      vertex 45 9.3 5
      vertex 45 7.3 72.2
    endloop
  endfacet
  facet normal 1 0 0
    outer loop
      vertex 45 -9.3 5
      vertex 45 -7.3 72.2
      vertex 45 -9.3 75
    endloop
  endfacet
  facet normal 1 0 0
    outer loop
      vertex 45 -7.3 72.2
      vertex 45 -9.3 5
      vertex 45 9.3 5
    endloop
  endfacet
  facet normal 0 1 -0
    outer loop
      vertex -9.3 9.3 5
      vertex -45 9.3 75
      vertex -9.3 9.3 75
    endloop
  endfacet
  facet normal 0 1 0
    outer loop
      vertex -45 9.3 75
      vertex -9.3 9.3 5
      vertex -45 9.3 5
    endloop
  endfacet
  facet normal 0 1 -0
    outer loop
      vertex 45 9.3 5
      vertex 9.3 9.3 75
      vertex 45 9.3 75
    endloop
  endfacet
  facet normal 0 1 0
    outer loop
      vertex 9.3 9.3 75
      vertex 45 9.3 5
      vertex 9.3 9.3 5
    endloop
  endfacet
  facet normal -0.850987 0.525186 0
    outer loop
      vertex -41.0364 23.9221 0
      vertex -39.7826 25.9537 5
      vertex -39.7826 25.9537 0
    endloop
  endfacet
  facet normal -0.850987 0.525186 0
    outer loop
      vertex -39.7826 25.9537 5
      vertex -41.0364 23.9221 0
      vertex -41.0364 23.9221 5
    endloop
  endfacet
  facet normal -0.998736 -0.0502648 0
    outer loop
      vertex -47.365 -3.57802 0
      vertex -47.485 -1.19368 5
      vertex -47.485 -1.19368 0
    endloop
  endfacet
  facet normal -0.998736 -0.0502648 0
    outer loop
      vertex -47.485 -1.19368 5
      vertex -47.365 -3.57802 0
      vertex -47.365 -3.57802 5
    endloop
  endfacet
  facet normal 0.675321 -0.737524 0
    outer loop
      vertex 31.1878 -35.8269 0
      vertex 32.9485 -34.2147 5
      vertex 31.1878 -35.8269 5
    endloop
  endfacet
  facet normal 0.675321 -0.737524 0
    outer loop
      vertex 32.9485 -34.2147 5
      vertex 31.1878 -35.8269 0
      vertex 32.9485 -34.2147 0
    endloop
  endfacet
  facet normal -0.112844 -0.993613 0
    outer loop
      vertex -6.54504 -47.0469 0
      vertex -4.17293 -47.3163 5
      vertex -6.54504 -47.0469 5
    endloop
  endfacet
  facet normal -0.112844 -0.993613 -0
    outer loop
      vertex -4.17293 -47.3163 5
      vertex -6.54504 -47.0469 0
      vertex -4.17293 -47.3163 0
    endloop
  endfacet
  facet normal -0.162648 0.986684 0
    outer loop
      vertex -6.54504 47.0469 0
      vertex -8.90061 46.6586 5
      vertex -6.54504 47.0469 5
    endloop
  endfacet
  facet normal -0.162648 0.986684 0
    outer loop
      vertex -8.90061 46.6586 5
      vertex -6.54504 47.0469 0
      vertex -8.90061 46.6586 0
    endloop
  endfacet
  facet normal -0.0126081 0.999921 0
    outer loop
      vertex 0.596887 47.4963 0
      vertex -1.79028 47.4662 5
      vertex 0.596887 47.4963 5
    endloop
  endfacet
  facet normal -0.0126081 0.999921 0
    outer loop
      vertex -1.79028 47.4662 5
      vertex 0.596887 47.4963 0
      vertex -1.79028 47.4662 0
    endloop
  endfacet
  facet normal 0.597907 0.801566 -0
    outer loop
      vertex 29.3483 37.3487 0
      vertex 27.4347 38.7761 5
      vertex 29.3483 37.3487 5
    endloop
  endfacet
  facet normal 0.597907 0.801566 0
    outer loop
      vertex 27.4347 38.7761 5
      vertex 29.3483 37.3487 0
      vertex 27.4347 38.7761 0
    endloop
  endfacet
  facet normal -0.402914 0.915238 0
    outer loop
      vertex -18.0395 43.9412 0
      vertex -20.2245 42.9793 5
      vertex -18.0395 43.9412 5
    endloop
  endfacet
  facet normal -0.402914 0.915238 0
    outer loop
      vertex -20.2245 42.9793 5
      vertex -18.0395 43.9412 0
      vertex -20.2245 42.9793 0
    endloop
  endfacet
  facet normal -0.994955 -0.10032 0
    outer loop
      vertex -47.1255 -5.95333 0
      vertex -47.365 -3.57802 5
      vertex -47.365 -3.57802 0
    endloop
  endfacet
  facet normal -0.994955 -0.10032 0
    outer loop
      vertex -47.365 -3.57802 5
      vertex -47.1255 -5.95333 0
      vertex -47.1255 -5.95333 5
    endloop
  endfacet
  facet normal 0.863911 -0.503644 0
    outer loop
      vertex 40.4222 -24.9458 5
      vertex 41.6246 -22.8833 0
      vertex 41.6246 -22.8833 5
    endloop
  endfacet
  facet normal 0.863911 -0.503644 0
    outer loop
      vertex 41.6246 -22.8833 0
      vertex 40.4222 -24.9458 5
      vertex 40.4222 -24.9458 0
    endloop
  endfacet
  facet normal 0.99716 -0.0753133 0
    outer loop
      vertex 47.2602 -4.76718 5
      vertex 47.44 -2.3866 0
      vertex 47.44 -2.3866 5
    endloop
  endfacet
  facet normal 0.99716 -0.0753133 0
    outer loop
      vertex 47.44 -2.3866 0
      vertex 47.2602 -4.76718 5
      vertex 47.2602 -4.76718 0
    endloop
  endfacet
  facet normal 0.637432 0.770506 -0
    outer loop
      vertex 31.1878 35.8269 0
      vertex 29.3483 37.3487 5
      vertex 31.1878 35.8269 5
    endloop
  endfacet
  facet normal 0.637432 0.770506 0
    outer loop
      vertex 29.3483 37.3487 5
      vertex 31.1878 35.8269 0
      vertex 29.3483 37.3487 0
    endloop
  endfacet
  facet normal -0.793994 0.607926 0
    outer loop
      vertex -38.4283 27.9198 0
      vertex -36.977 29.8153 5
      vertex -36.977 29.8153 0
    endloop
  endfacet
  facet normal -0.793994 0.607926 0
    outer loop
      vertex -36.977 29.8153 5
      vertex -38.4283 27.9198 0
      vertex -38.4283 27.9198 5
    endloop
  endfacet
  facet normal 0.837538 0.546379 0
    outer loop
      vertex 40.4222 24.9458 5
      vertex 39.1178 26.9453 0
      vertex 39.1178 26.9453 5
    endloop
  endfacet
  facet normal 0.837538 0.546379 0
    outer loop
      vertex 39.1178 26.9453 0
      vertex 40.4222 24.9458 5
      vertex 40.4222 24.9458 0
    endloop
  endfacet
  facet normal 0.470732 -0.882276 0
    outer loop
      vertex 21.2982 -42.4575 0
      vertex 23.4045 -41.3337 5
      vertex 21.2982 -42.4575 5
    endloop
  endfacet
  facet normal 0.470732 -0.882276 0
    outer loop
      vertex 23.4045 -41.3337 5
      vertex 21.2982 -42.4575 0
      vertex 23.4045 -41.3337 0
    endloop
  endfacet
  facet normal -0.617857 -0.786291 0
    outer loop
      vertex -30.2776 -36.5994 0
      vertex -28.4005 -38.0744 5
      vertex -30.2776 -36.5994 5
    endloop
  endfacet
  facet normal -0.617857 -0.786291 -0
    outer loop
      vertex -28.4005 -38.0744 5
      vertex -30.2776 -36.5994 0
      vertex -28.4005 -38.0744 0
    endloop
  endfacet
  facet normal 0.88815 -0.459553 0
    outer loop
      vertex 41.6246 -22.8833 5
      vertex 42.7217 -20.763 0
      vertex 42.7217 -20.763 5
    endloop
  endfacet
  facet normal 0.88815 -0.459553 0
    outer loop
      vertex 42.7217 -20.763 0
      vertex 41.6246 -22.8833 5
      vertex 41.6246 -22.8833 0
    endloop
  endfacet
  facet normal 0.285007 0.958526 -0
    outer loop
      vertex 14.6783 45.1752 0
      vertex 12.39 45.8556 5
      vertex 14.6783 45.1752 5
    endloop
  endfacet
  facet normal 0.285007 0.958526 0
    outer loop
      vertex 12.39 45.8556 5
      vertex 14.6783 45.1752 0
      vertex 12.39 45.8556 0
    endloop
  endfacet
  facet normal 0.425791 0.904822 -0
    outer loop
      vertex 21.2982 42.4575 0
      vertex 19.1381 43.474 5
      vertex 21.2982 42.4575 5
    endloop
  endfacet
  facet normal 0.425791 0.904822 0
    outer loop
      vertex 19.1381 43.474 5
      vertex 21.2982 42.4575 0
      vertex 19.1381 43.474 0
    endloop
  endfacet
  facet normal -0.95487 -0.297025 0
    outer loop
      vertex -44.9872 -15.2448 0
      vertex -45.6963 -12.9652 5
      vertex -45.6963 -12.9652 0
    endloop
  endfacet
  facet normal -0.95487 -0.297025 0
    outer loop
      vertex -45.6963 -12.9652 5
      vertex -44.9872 -15.2448 0
      vertex -44.9872 -15.2448 5
    endloop
  endfacet
  facet normal 0.778472 0.627679 0
    outer loop
      vertex 37.7145 28.8767 5
      vertex 36.216 30.7352 0
      vertex 36.216 30.7352 5
    endloop
  endfacet
  facet normal 0.778472 0.627679 0
    outer loop
      vertex 36.216 30.7352 0
      vertex 37.7145 28.8767 5
      vertex 37.7145 28.8767 0
    endloop
  endfacet
  facet normal 0.99716 0.0753133 0
    outer loop
      vertex 47.44 2.3866 5
      vertex 47.2602 4.76718 0
      vertex 47.2602 4.76718 5
    endloop
  endfacet
  facet normal 0.99716 0.0753133 0
    outer loop
      vertex 47.2602 4.76718 0
      vertex 47.44 2.3866 5
      vertex 47.44 2.3866 0
    endloop
  endfacet
  facet normal 0.999684 -0.0251324 0
    outer loop
      vertex 47.44 -2.3866 5
      vertex 47.5 0 0
      vertex 47.5 0 5
    endloop
  endfacet
  facet normal 0.999684 -0.0251324 0
    outer loop
      vertex 47.5 0 0
      vertex 47.44 -2.3866 5
      vertex 47.44 -2.3866 0
    endloop
  endfacet
  facet normal -0.728958 0.684558 0
    outer loop
      vertex -35.4322 31.6356 0
      vertex -33.7979 33.3759 5
      vertex -33.7979 33.3759 0
    endloop
  endfacet
  facet normal -0.728958 0.684558 0
    outer loop
      vertex -33.7979 33.3759 5
      vertex -35.4322 31.6356 0
      vertex -35.4322 31.6356 5
    endloop
  endfacet
  facet normal 0.962031 0.272939 0
    outer loop
      vertex 46.0077 11.8128 5
      vertex 45.3561 14.1095 0
      vertex 45.3561 14.1095 5
    endloop
  endfacet
  facet normal 0.962031 0.272939 0
    outer loop
      vertex 45.3561 14.1095 0
      vertex 46.0077 11.8128 5
      vertex 46.0077 11.8128 0
    endloop
  endfacet
  facet normal -0.762447 -0.647051 0
    outer loop
      vertex -35.4322 -31.6356 0
      vertex -36.977 -29.8153 5
      vertex -36.977 -29.8153 0
    endloop
  endfacet
  facet normal -0.762447 -0.647051 0
    outer loop
      vertex -36.977 -29.8153 5
      vertex -35.4322 -31.6356 0
      vertex -35.4322 -31.6356 5
    endloop
  endfacet
  facet normal 0.98456 -0.175046 0
    outer loop
      vertex 46.5431 -9.48622 5
      vertex 46.961 -7.13571 0
      vertex 46.961 -7.13571 5
    endloop
  endfacet
  facet normal 0.98456 -0.175046 0
    outer loop
      vertex 46.961 -7.13571 0
      vertex 46.5431 -9.48622 5
      vertex 46.5431 -9.48622 0
    endloop
  endfacet
  facet normal -0.535826 -0.844328 0
    outer loop
      vertex -26.4516 -39.4533 0
      vertex -24.4359 -40.7325 5
      vertex -26.4516 -39.4533 5
    endloop
  endfacet
  facet normal -0.535826 -0.844328 -0
    outer loop
      vertex -24.4359 -40.7325 5
      vertex -26.4516 -39.4533 0
      vertex -24.4359 -40.7325 0
    endloop
  endfacet
  facet normal 0.137768 0.990465 -0
    outer loop
      vertex 7.72526 46.8676 0
      vertex 5.36068 47.1965 5
      vertex 7.72526 46.8676 5
    endloop
  endfacet
  facet normal 0.137768 0.990465 0
    outer loop
      vertex 5.36068 47.1965 5
      vertex 7.72526 46.8676 0
      vertex 5.36068 47.1965 0
    endloop
  endfacet
  facet normal -0.994955 0.10032 0
    outer loop
      vertex -47.365 3.57802 0
      vertex -47.1255 5.95333 5
      vertex -47.1255 5.95333 0
    endloop
  endfacet
  facet normal -0.994955 0.10032 0
    outer loop
      vertex -47.1255 5.95333 5
      vertex -47.365 3.57802 0
      vertex -47.365 3.57802 5
    endloop
  endfacet
  facet normal 0.992115 -0.125327 0
    outer loop
      vertex 46.961 -7.13571 5
      vertex 47.2602 -4.76718 0
      vertex 47.2602 -4.76718 5
    endloop
  endfacet
  facet normal 0.992115 -0.125327 0
    outer loop
      vertex 47.2602 -4.76718 0
      vertex 46.961 -7.13571 5
      vertex 46.961 -7.13571 0
    endloop
  endfacet
  facet normal 0.236489 0.971634 -0
    outer loop
      vertex 12.39 45.8556 0
      vertex 10.0703 46.4202 5
      vertex 12.39 45.8556 5
    endloop
  endfacet
  facet normal 0.236489 0.971634 0
    outer loop
      vertex 10.0703 46.4202 5
      vertex 12.39 45.8556 0
      vertex 10.0703 46.4202 0
    endloop
  endfacet
  facet normal -0.762447 0.647051 0
    outer loop
      vertex -36.977 29.8153 0
      vertex -35.4322 31.6356 5
      vertex -35.4322 31.6356 0
    endloop
  endfacet
  facet normal -0.762447 0.647051 0
    outer loop
      vertex -35.4322 31.6356 5
      vertex -36.977 29.8153 0
      vertex -36.977 29.8153 5
    endloop
  endfacet
  facet normal -0.492711 0.870193 0
    outer loop
      vertex -22.3584 41.9088 0
      vertex -24.4359 40.7325 5
      vertex -22.3584 41.9088 5
    endloop
  endfacet
  facet normal -0.492711 0.870193 0
    outer loop
      vertex -24.4359 40.7325 5
      vertex -22.3584 41.9088 0
      vertex -24.4359 40.7325 0
    endloop
  endfacet
  facet normal 0.0376985 0.999289 -0
    outer loop
      vertex 2.98255 47.4063 0
      vertex 0.596887 47.4963 5
      vertex 2.98255 47.4063 5
    endloop
  endfacet
  facet normal 0.0376985 0.999289 0
    outer loop
      vertex 0.596887 47.4963 5
      vertex 2.98255 47.4063 0
      vertex 0.596887 47.4963 0
    endloop
  endfacet
  facet normal -0.998736 0.0502648 0
    outer loop
      vertex -47.485 1.19368 0
      vertex -47.365 3.57802 5
      vertex -47.365 3.57802 0
    endloop
  endfacet
  facet normal -0.998736 0.0502648 0
    outer loop
      vertex -47.365 3.57802 5
      vertex -47.485 1.19368 0
      vertex -47.485 1.19368 5
    endloop
  endfacet
  facet normal 0.187405 -0.982283 0
    outer loop
      vertex 7.72526 -46.8676 0
      vertex 10.0703 -46.4202 5
      vertex 7.72526 -46.8676 5
    endloop
  endfacet
  facet normal 0.187405 -0.982283 0
    outer loop
      vertex 10.0703 -46.4202 5
      vertex 7.72526 -46.8676 0
      vertex 10.0703 -46.4202 0
    endloop
  endfacet
  facet normal 0.992115 0.125327 0
    outer loop
      vertex 47.2602 4.76718 5
      vertex 46.961 7.13571 0
      vertex 46.961 7.13571 5
    endloop
  endfacet
  facet normal 0.992115 0.125327 0
    outer loop
      vertex 46.961 7.13571 0
      vertex 47.2602 4.76718 5
      vertex 47.2602 4.76718 0
    endloop
  endfacet
  facet normal 0.0878793 -0.996131 0
    outer loop
      vertex 2.98255 -47.4063 0
      vertex 5.36068 -47.1965 5
      vertex 2.98255 -47.4063 5
    endloop
  endfacet
  facet normal 0.0878793 -0.996131 0
    outer loop
      vertex 5.36068 -47.1965 5
      vertex 2.98255 -47.4063 0
      vertex 5.36068 -47.1965 0
    endloop
  endfacet
  facet normal 0.999684 0.0251324 0
    outer loop
      vertex 47.5 0 5
      vertex 47.44 2.3866 0
      vertex 47.44 2.3866 5
    endloop
  endfacet
  facet normal 0.999684 0.0251324 0
    outer loop
      vertex 47.44 2.3866 0
      vertex 47.5 0 5
      vertex 47.5 0 0
    endloop
  endfacet
  facet normal 0.285007 -0.958526 0
    outer loop
      vertex 12.39 -45.8556 0
      vertex 14.6783 -45.1752 5
      vertex 12.39 -45.8556 5
    endloop
  endfacet
  facet normal 0.285007 -0.958526 0
    outer loop
      vertex 14.6783 -45.1752 5
      vertex 12.39 -45.8556 0
      vertex 14.6783 -45.1752 0
    endloop
  endfacet
  facet normal -0.899414 0.437099 0
    outer loop
      vertex -43.23 19.6828 0
      vertex -42.1865 21.83 5
      vertex -42.1865 21.83 0
    endloop
  endfacet
  facet normal -0.899414 0.437099 0
    outer loop
      vertex -42.1865 21.83 5
      vertex -43.23 19.6828 0
      vertex -43.23 19.6828 5
    endloop
  endfacet
  facet normal -0.260834 0.965384 0
    outer loop
      vertex -11.2337 46.1525 0
      vertex -13.5384 45.5298 5
      vertex -11.2337 46.1525 5
    endloop
  endfacet
  facet normal -0.260834 0.965384 0
    outer loop
      vertex -13.5384 45.5298 5
      vertex -11.2337 46.1525 0
      vertex -13.5384 45.5298 0
    endloop
  endfacet
  facet normal 0.910104 0.41438 0
    outer loop
      vertex 43.711 18.5902 5
      vertex 42.7217 20.763 0
      vertex 42.7217 20.763 5
    endloop
  endfacet
  facet normal 0.910104 0.41438 0
    outer loop
      vertex 42.7217 20.763 0
      vertex 43.711 18.5902 5
      vertex 43.711 18.5902 0
    endloop
  endfacet
  facet normal -0.356379 -0.934342 0
    outer loop
      vertex -18.0395 -43.9412 0
      vertex -15.8089 -44.792 5
      vertex -18.0395 -43.9412 5
    endloop
  endfacet
  facet normal -0.356379 -0.934342 -0
    outer loop
      vertex -15.8089 -44.792 5
      vertex -18.0395 -43.9412 0
      vertex -15.8089 -44.792 0
    endloop
  endfacet
  facet normal 0.98456 0.175046 0
    outer loop
      vertex 46.961 7.13571 5
      vertex 46.5431 9.48622 0
      vertex 46.5431 9.48622 5
    endloop
  endfacet
  facet normal 0.98456 0.175046 0
    outer loop
      vertex 46.5431 9.48622 0
      vertex 46.961 7.13571 5
      vertex 46.961 7.13571 0
    endloop
  endfacet
  facet normal 0.711533 -0.702653 0
    outer loop
      vertex 32.9485 -34.2147 5
      vertex 34.626 -32.516 0
      vertex 34.626 -32.516 5
    endloop
  endfacet
  facet normal 0.711533 -0.702653 0
    outer loop
      vertex 34.626 -32.516 0
      vertex 32.9485 -34.2147 5
      vertex 32.9485 -34.2147 0
    endloop
  endfacet
  facet normal -0.211992 -0.977271 0
    outer loop
      vertex -11.2337 -46.1525 0
      vertex -8.90061 -46.6586 5
      vertex -11.2337 -46.1525 5
    endloop
  endfacet
  facet normal -0.211992 -0.977271 -0
    outer loop
      vertex -8.90061 -46.6586 5
      vertex -11.2337 -46.1525 0
      vertex -8.90061 -46.6586 0
    endloop
  endfacet
  facet normal -0.979854 -0.199715 0
    outer loop
      vertex -46.29 -10.6529 0
      vertex -46.7668 -8.31359 5
      vertex -46.7668 -8.31359 0
    endloop
  endfacet
  facet normal -0.979854 -0.199715 0
    outer loop
      vertex -46.7668 -8.31359 5
      vertex -46.29 -10.6529 0
      vertex -46.29 -10.6529 5
    endloop
  endfacet
  facet normal -0.448403 0.893832 0
    outer loop
      vertex -20.2245 42.9793 0
      vertex -22.3584 41.9088 5
      vertex -20.2245 42.9793 5
    endloop
  endfacet
  facet normal -0.448403 0.893832 0
    outer loop
      vertex -22.3584 41.9088 5
      vertex -20.2245 42.9793 0
      vertex -22.3584 41.9088 0
    endloop
  endfacet
  facet normal -1 0 0
    outer loop
      vertex -47.485 -1.19368 0
      vertex -47.485 1.19368 5
      vertex -47.485 1.19368 0
    endloop
  endfacet
  facet normal -1 -0 0
    outer loop
      vertex -47.485 1.19368 5
      vertex -47.485 -1.19368 0
      vertex -47.485 -1.19368 5
    endloop
  endfacet
  facet normal 0.137768 -0.990465 0
    outer loop
      vertex 5.36068 -47.1965 0
      vertex 7.72526 -46.8676 5
      vertex 5.36068 -47.1965 5
    endloop
  endfacet
  facet normal 0.137768 -0.990465 0
    outer loop
      vertex 7.72526 -46.8676 5
      vertex 5.36068 -47.1965 0
      vertex 7.72526 -46.8676 0
    endloop
  endfacet
  facet normal -0.823532 0.56727 0
    outer loop
      vertex -39.7826 25.9537 0
      vertex -38.4283 27.9198 5
      vertex -38.4283 27.9198 0
    endloop
  endfacet
  facet normal -0.823532 0.56727 0
    outer loop
      vertex -38.4283 27.9198 5
      vertex -39.7826 25.9537 0
      vertex -39.7826 25.9537 5
    endloop
  endfacet
  facet normal 0.947097 -0.320949 0
    outer loop
      vertex 44.5899 -16.3705 5
      vertex 45.3561 -14.1095 0
      vertex 45.3561 -14.1095 5
    endloop
  endfacet
  facet normal 0.947097 -0.320949 0
    outer loop
      vertex 45.3561 -14.1095 0
      vertex 44.5899 -16.3705 5
      vertex 44.5899 -16.3705 0
    endloop
  endfacet
  facet normal 0.425791 -0.904822 0
    outer loop
      vertex 19.1381 -43.474 0
      vertex 21.2982 -42.4575 5
      vertex 19.1381 -43.474 5
    endloop
  endfacet
  facet normal 0.425791 -0.904822 0
    outer loop
      vertex 21.2982 -42.4575 5
      vertex 19.1381 -43.474 0
      vertex 21.2982 -42.4575 0
    endloop
  endfacet
  facet normal 0.929768 -0.368146 0
    outer loop
      vertex 43.711 -18.5902 5
      vertex 44.5899 -16.3705 0
      vertex 44.5899 -16.3705 5
    endloop
  endfacet
  facet normal 0.929768 -0.368146 0
    outer loop
      vertex 44.5899 -16.3705 0
      vertex 43.711 -18.5902 5
      vertex 43.711 -18.5902 0
    endloop
  endfacet
  facet normal -0.850987 -0.525186 0
    outer loop
      vertex -39.7826 -25.9537 0
      vertex -41.0364 -23.9221 5
      vertex -41.0364 -23.9221 0
    endloop
  endfacet
  facet normal -0.850987 -0.525186 0
    outer loop
      vertex -41.0364 -23.9221 5
      vertex -39.7826 -25.9537 0
      vertex -39.7826 -25.9537 5
    endloop
  endfacet
  facet normal -0.309043 0.951048 0
    outer loop
      vertex -13.5384 45.5298 0
      vertex -15.8089 44.792 5
      vertex -13.5384 45.5298 5
    endloop
  endfacet
  facet normal -0.309043 0.951048 0
    outer loop
      vertex -15.8089 44.792 5
      vertex -13.5384 45.5298 0
      vertex -15.8089 44.792 0
    endloop
  endfacet
  facet normal 0.962031 -0.272939 0
    outer loop
      vertex 45.3561 -14.1095 5
      vertex 46.0077 -11.8128 0
      vertex 46.0077 -11.8128 5
    endloop
  endfacet
  facet normal 0.962031 -0.272939 0
    outer loop
      vertex 46.0077 -11.8128 0
      vertex 45.3561 -14.1095 5
      vertex 45.3561 -14.1095 0
    endloop
  endfacet
  facet normal 0.778472 -0.627679 0
    outer loop
      vertex 36.216 -30.7352 5
      vertex 37.7145 -28.8767 0
      vertex 37.7145 -28.8767 5
    endloop
  endfacet
  facet normal 0.778472 -0.627679 0
    outer loop
      vertex 37.7145 -28.8767 0
      vertex 36.216 -30.7352 5
      vertex 36.216 -30.7352 0
    endloop
  endfacet
  facet normal 0.379753 -0.925088 0
    outer loop
      vertex 16.9296 -44.3806 0
      vertex 19.1381 -43.474 5
      vertex 16.9296 -44.3806 5
    endloop
  endfacet
  facet normal 0.379753 -0.925088 0
    outer loop
      vertex 19.1381 -43.474 5
      vertex 16.9296 -44.3806 0
      vertex 19.1381 -43.474 0
    endloop
  endfacet
  facet normal 0.332829 0.942987 -0
    outer loop
      vertex 16.9296 44.3806 0
      vertex 14.6783 45.1752 5
      vertex 16.9296 44.3806 5
    endloop
  endfacet
  facet normal 0.332829 0.942987 0
    outer loop
      vertex 14.6783 45.1752 5
      vertex 16.9296 44.3806 0
      vertex 14.6783 45.1752 0
    endloop
  endfacet
  facet normal 0.745938 -0.666016 0
    outer loop
      vertex 34.626 -32.516 5
      vertex 36.216 -30.7352 0
      vertex 36.216 -30.7352 5
    endloop
  endfacet
  facet normal 0.745938 -0.666016 0
    outer loop
      vertex 36.216 -30.7352 0
      vertex 34.626 -32.516 5
      vertex 34.626 -32.516 0
    endloop
  endfacet
  facet normal 0.0376985 -0.999289 0
    outer loop
      vertex 0.596887 -47.4963 0
      vertex 2.98255 -47.4063 5
      vertex 0.596887 -47.4963 5
    endloop
  endfacet
  facet normal 0.0376985 -0.999289 0
    outer loop
      vertex 2.98255 -47.4063 5
      vertex 0.596887 -47.4963 0
      vertex 2.98255 -47.4063 0
    endloop
  endfacet
  facet normal 0.597907 -0.801566 0
    outer loop
      vertex 27.4347 -38.7761 0
      vertex 29.3483 -37.3487 5
      vertex 27.4347 -38.7761 5
    endloop
  endfacet
  facet normal 0.597907 -0.801566 0
    outer loop
      vertex 29.3483 -37.3487 5
      vertex 27.4347 -38.7761 0
      vertex 29.3483 -37.3487 0
    endloop
  endfacet
  facet normal -0.062789 -0.998027 0
    outer loop
      vertex -4.17293 -47.3163 0
      vertex -1.79028 -47.4662 5
      vertex -4.17293 -47.3163 5
    endloop
  endfacet
  facet normal -0.062789 -0.998027 -0
    outer loop
      vertex -1.79028 -47.4662 5
      vertex -4.17293 -47.3163 0
      vertex -1.79028 -47.4662 0
    endloop
  endfacet
  facet normal -0.988648 -0.15025 0
    outer loop
      vertex -46.7668 -8.31359 0
      vertex -47.1255 -5.95333 5
      vertex -47.1255 -5.95333 0
    endloop
  endfacet
  facet normal -0.988648 -0.15025 0
    outer loop
      vertex -47.1255 -5.95333 5
      vertex -46.7668 -8.31359 0
      vertex -46.7668 -8.31359 5
    endloop
  endfacet
  facet normal -0.402914 -0.915238 0
    outer loop
      vertex -20.2245 -42.9793 0
      vertex -18.0395 -43.9412 5
      vertex -20.2245 -42.9793 5
    endloop
  endfacet
  facet normal -0.402914 -0.915238 -0
    outer loop
      vertex -18.0395 -43.9412 5
      vertex -20.2245 -42.9793 0
      vertex -18.0395 -43.9412 0
    endloop
  endfacet
  facet normal 0.0878793 0.996131 -0
    outer loop
      vertex 5.36068 47.1965 0
      vertex 2.98255 47.4063 5
      vertex 5.36068 47.1965 5
    endloop
  endfacet
  facet normal 0.0878793 0.996131 0
    outer loop
      vertex 2.98255 47.4063 5
      vertex 5.36068 47.1965 0
      vertex 2.98255 47.4063 0
    endloop
  endfacet
  facet normal -0.656578 -0.754258 0
    outer loop
      vertex -32.0783 -35.0319 0
      vertex -30.2776 -36.5994 5
      vertex -32.0783 -35.0319 5
    endloop
  endfacet
  facet normal -0.656578 -0.754258 -0
    outer loop
      vertex -30.2776 -36.5994 5
      vertex -32.0783 -35.0319 0
      vertex -30.2776 -36.5994 0
    endloop
  endfacet
  facet normal -0.577579 0.816335 0
    outer loop
      vertex -26.4516 39.4533 0
      vertex -28.4005 38.0744 5
      vertex -26.4516 39.4533 5
    endloop
  endfacet
  facet normal -0.577579 0.816335 0
    outer loop
      vertex -28.4005 38.0744 5
      vertex -26.4516 39.4533 0
      vertex -28.4005 38.0744 0
    endloop
  endfacet
  facet normal 0.637432 -0.770506 0
    outer loop
      vertex 29.3483 -37.3487 0
      vertex 31.1878 -35.8269 5
      vertex 29.3483 -37.3487 5
    endloop
  endfacet
  facet normal 0.637432 -0.770506 0
    outer loop
      vertex 31.1878 -35.8269 5
      vertex 29.3483 -37.3487 0
      vertex 31.1878 -35.8269 0
    endloop
  endfacet
  facet normal -0.492711 -0.870193 0
    outer loop
      vertex -24.4359 -40.7325 0
      vertex -22.3584 -41.9088 5
      vertex -24.4359 -40.7325 5
    endloop
  endfacet
  facet normal -0.492711 -0.870193 -0
    outer loop
      vertex -22.3584 -41.9088 5
      vertex -24.4359 -40.7325 0
      vertex -22.3584 -41.9088 0
    endloop
  endfacet
  facet normal 0.236489 -0.971634 0
    outer loop
      vertex 10.0703 -46.4202 0
      vertex 12.39 -45.8556 5
      vertex 10.0703 -46.4202 5
    endloop
  endfacet
  facet normal 0.236489 -0.971634 0
    outer loop
      vertex 12.39 -45.8556 5
      vertex 10.0703 -46.4202 0
      vertex 12.39 -45.8556 0
    endloop
  endfacet
  facet normal -0.656578 0.754258 0
    outer loop
      vertex -30.2776 36.5994 0
      vertex -32.0783 35.0319 5
      vertex -30.2776 36.5994 5
    endloop
  endfacet
  facet normal -0.656578 0.754258 0
    outer loop
      vertex -32.0783 35.0319 5
      vertex -30.2776 36.5994 0
      vertex -32.0783 35.0319 0
    endloop
  endfacet
  facet normal 0.556893 0.830585 -0
    outer loop
      vertex 27.4347 38.7761 0
      vertex 25.4518 40.1056 5
      vertex 27.4347 38.7761 5
    endloop
  endfacet
  facet normal 0.556893 0.830585 0
    outer loop
      vertex 25.4518 40.1056 5
      vertex 27.4347 38.7761 0
      vertex 25.4518 40.1056 0
    endloop
  endfacet
  facet normal -0.693661 0.720302 0
    outer loop
      vertex -32.0783 35.0319 0
      vertex -33.7979 33.3759 5
      vertex -32.0783 35.0319 5
    endloop
  endfacet
  facet normal -0.693661 0.720302 0
    outer loop
      vertex -33.7979 33.3759 5
      vertex -32.0783 35.0319 0
      vertex -33.7979 33.3759 0
    endloop
  endfacet
  facet normal 0.51441 -0.857545 0
    outer loop
      vertex 23.4045 -41.3337 0
      vertex 25.4518 -40.1056 5
      vertex 23.4045 -41.3337 5
    endloop
  endfacet
  facet normal 0.51441 -0.857545 0
    outer loop
      vertex 25.4518 -40.1056 5
      vertex 23.4045 -41.3337 0
      vertex 25.4518 -40.1056 0
    endloop
  endfacet
  facet normal -0.938732 -0.344647 0
    outer loop
      vertex -44.1644 -17.4859 0
      vertex -44.9872 -15.2448 5
      vertex -44.9872 -15.2448 0
    endloop
  endfacet
  facet normal -0.938732 -0.344647 0
    outer loop
      vertex -44.9872 -15.2448 5
      vertex -44.1644 -17.4859 0
      vertex -44.1644 -17.4859 5
    endloop
  endfacet
  facet normal -0.448403 -0.893832 0
    outer loop
      vertex -22.3584 -41.9088 0
      vertex -20.2245 -42.9793 5
      vertex -22.3584 -41.9088 5
    endloop
  endfacet
  facet normal -0.448403 -0.893832 -0
    outer loop
      vertex -20.2245 -42.9793 5
      vertex -22.3584 -41.9088 0
      vertex -20.2245 -42.9793 0
    endloop
  endfacet
  facet normal -0.968583 0.248691 0
    outer loop
      vertex -46.29 10.6529 0
      vertex -45.6963 12.9652 5
      vertex -45.6963 12.9652 0
    endloop
  endfacet
  facet normal -0.968583 0.248691 0
    outer loop
      vertex -45.6963 12.9652 5
      vertex -46.29 10.6529 0
      vertex -46.29 10.6529 5
    endloop
  endfacet
  facet normal -0.876314 -0.48174 0
    outer loop
      vertex -41.0364 -23.9221 0
      vertex -42.1865 -21.83 5
      vertex -42.1865 -21.83 0
    endloop
  endfacet
  facet normal -0.876314 -0.48174 0
    outer loop
      vertex -42.1865 -21.83 5
      vertex -41.0364 -23.9221 0
      vertex -41.0364 -23.9221 5
    endloop
  endfacet
  facet normal 0.470732 0.882276 -0
    outer loop
      vertex 23.4045 41.3337 0
      vertex 21.2982 42.4575 5
      vertex 23.4045 41.3337 5
    endloop
  endfacet
  facet normal 0.470732 0.882276 0
    outer loop
      vertex 21.2982 42.4575 5
      vertex 23.4045 41.3337 0
      vertex 21.2982 42.4575 0
    endloop
  endfacet
  facet normal -0.95487 0.297025 0
    outer loop
      vertex -45.6963 12.9652 0
      vertex -44.9872 15.2448 5
      vertex -44.9872 15.2448 0
    endloop
  endfacet
  facet normal -0.95487 0.297025 0
    outer loop
      vertex -44.9872 15.2448 5
      vertex -45.6963 12.9652 0
      vertex -45.6963 12.9652 5
    endloop
  endfacet
  facet normal 0.809006 -0.587801 0
    outer loop
      vertex 37.7145 -28.8767 5
      vertex 39.1178 -26.9453 0
      vertex 39.1178 -26.9453 5
    endloop
  endfacet
  facet normal 0.809006 -0.587801 0
    outer loop
      vertex 39.1178 -26.9453 0
      vertex 37.7145 -28.8767 5
      vertex 37.7145 -28.8767 0
    endloop
  endfacet
  facet normal 0.675321 0.737524 -0
    outer loop
      vertex 32.9485 34.2147 0
      vertex 31.1878 35.8269 5
      vertex 32.9485 34.2147 5
    endloop
  endfacet
  facet normal 0.675321 0.737524 0
    outer loop
      vertex 31.1878 35.8269 5
      vertex 32.9485 34.2147 0
      vertex 31.1878 35.8269 0
    endloop
  endfacet
  facet normal -0.979854 0.199715 0
    outer loop
      vertex -46.7668 8.31359 0
      vertex -46.29 10.6529 5
      vertex -46.29 10.6529 0
    endloop
  endfacet
  facet normal -0.979854 0.199715 0
    outer loop
      vertex -46.29 10.6529 5
      vertex -46.7668 8.31359 0
      vertex -46.7668 8.31359 5
    endloop
  endfacet
  facet normal 0.837538 -0.546379 0
    outer loop
      vertex 39.1178 -26.9453 5
      vertex 40.4222 -24.9458 0
      vertex 40.4222 -24.9458 5
    endloop
  endfacet
  facet normal 0.837538 -0.546379 0
    outer loop
      vertex 40.4222 -24.9458 0
      vertex 39.1178 -26.9453 5
      vertex 39.1178 -26.9453 0
    endloop
  endfacet
  facet normal 0.910104 -0.41438 0
    outer loop
      vertex 42.7217 -20.763 5
      vertex 43.711 -18.5902 0
      vertex 43.711 -18.5902 5
    endloop
  endfacet
  facet normal 0.910104 -0.41438 0
    outer loop
      vertex 43.711 -18.5902 0
      vertex 42.7217 -20.763 5
      vertex 42.7217 -20.763 0
    endloop
  endfacet
  facet normal -0.728958 -0.684558 0
    outer loop
      vertex -33.7979 -33.3759 0
      vertex -35.4322 -31.6356 5
      vertex -35.4322 -31.6356 0
    endloop
  endfacet
  facet normal -0.728958 -0.684558 0
    outer loop
      vertex -35.4322 -31.6356 5
      vertex -33.7979 -33.3759 0
      vertex -33.7979 -33.3759 5
    endloop
  endfacet
  facet normal 0.974529 -0.224262 0
    outer loop
      vertex 46.0077 -11.8128 5
      vertex 46.5431 -9.48622 0
      vertex 46.5431 -9.48622 5
    endloop
  endfacet
  facet normal 0.974529 -0.224262 0
    outer loop
      vertex 46.5431 -9.48622 0
      vertex 46.0077 -11.8128 5
      vertex 46.0077 -11.8128 0
    endloop
  endfacet
  facet normal 0.929768 0.368146 0
    outer loop
      vertex 44.5899 16.3705 5
      vertex 43.711 18.5902 0
      vertex 43.711 18.5902 5
    endloop
  endfacet
  facet normal 0.929768 0.368146 0
    outer loop
      vertex 43.711 18.5902 0
      vertex 44.5899 16.3705 5
      vertex 44.5899 16.3705 0
    endloop
  endfacet
  facet normal -0.876314 0.48174 0
    outer loop
      vertex -42.1865 21.83 0
      vertex -41.0364 23.9221 5
      vertex -41.0364 23.9221 0
    endloop
  endfacet
  facet normal -0.876314 0.48174 0
    outer loop
      vertex -41.0364 23.9221 5
      vertex -42.1865 21.83 0
      vertex -42.1865 21.83 5
    endloop
  endfacet
  facet normal 0.711533 0.702653 0
    outer loop
      vertex 34.626 32.516 5
      vertex 32.9485 34.2147 0
      vertex 32.9485 34.2147 5
    endloop
  endfacet
  facet normal 0.711533 0.702653 0
    outer loop
      vertex 32.9485 34.2147 0
      vertex 34.626 32.516 5
      vertex 34.626 32.516 0
    endloop
  endfacet
  facet normal 0.947097 0.320949 0
    outer loop
      vertex 45.3561 14.1095 5
      vertex 44.5899 16.3705 0
      vertex 44.5899 16.3705 5
    endloop
  endfacet
  facet normal 0.947097 0.320949 0
    outer loop
      vertex 44.5899 16.3705 0
      vertex 45.3561 14.1095 5
      vertex 45.3561 14.1095 0
    endloop
  endfacet
  facet normal -0.617857 0.786291 0
    outer loop
      vertex -28.4005 38.0744 0
      vertex -30.2776 36.5994 5
      vertex -28.4005 38.0744 5
    endloop
  endfacet
  facet normal -0.617857 0.786291 0
    outer loop
      vertex -30.2776 36.5994 5
      vertex -28.4005 38.0744 0
      vertex -30.2776 36.5994 0
    endloop
  endfacet
  facet normal -0.535826 0.844328 0
    outer loop
      vertex -24.4359 40.7325 0
      vertex -26.4516 39.4533 5
      vertex -24.4359 40.7325 5
    endloop
  endfacet
  facet normal -0.535826 0.844328 0
    outer loop
      vertex -26.4516 39.4533 5
      vertex -24.4359 40.7325 0
      vertex -26.4516 39.4533 0
    endloop
  endfacet
  facet normal 0.379753 0.925088 -0
    outer loop
      vertex 19.1381 43.474 0
      vertex 16.9296 44.3806 5
      vertex 19.1381 43.474 5
    endloop
  endfacet
  facet normal 0.379753 0.925088 0
    outer loop
      vertex 16.9296 44.3806 5
      vertex 19.1381 43.474 0
      vertex 16.9296 44.3806 0
    endloop
  endfacet
  facet normal 0.51441 0.857545 -0
    outer loop
      vertex 25.4518 40.1056 0
      vertex 23.4045 41.3337 5
      vertex 25.4518 40.1056 5
    endloop
  endfacet
  facet normal 0.51441 0.857545 0
    outer loop
      vertex 23.4045 41.3337 5
      vertex 25.4518 40.1056 0
      vertex 23.4045 41.3337 0
    endloop
  endfacet
  facet normal -0.211992 0.977271 0
    outer loop
      vertex -8.90061 46.6586 0
      vertex -11.2337 46.1525 5
      vertex -8.90061 46.6586 5
    endloop
  endfacet
  facet normal -0.211992 0.977271 0
    outer loop
      vertex -11.2337 46.1525 5
      vertex -8.90061 46.6586 0
      vertex -11.2337 46.1525 0
    endloop
  endfacet
  facet normal -0.920223 0.391395 0
    outer loop
      vertex -44.1644 17.4859 0
      vertex -43.23 19.6828 5
      vertex -43.23 19.6828 0
    endloop
  endfacet
  facet normal -0.920223 0.391395 0
    outer loop
      vertex -43.23 19.6828 5
      vertex -44.1644 17.4859 0
      vertex -44.1644 17.4859 5
    endloop
  endfacet
  facet normal 0.556893 -0.830585 0
    outer loop
      vertex 25.4518 -40.1056 0
      vertex 27.4347 -38.7761 5
      vertex 25.4518 -40.1056 5
    endloop
  endfacet
  facet normal 0.556893 -0.830585 0
    outer loop
      vertex 27.4347 -38.7761 5
      vertex 25.4518 -40.1056 0
      vertex 27.4347 -38.7761 0
    endloop
  endfacet
  facet normal 0.809006 0.587801 0
    outer loop
      vertex 39.1178 26.9453 5
      vertex 37.7145 28.8767 0
      vertex 37.7145 28.8767 5
    endloop
  endfacet
  facet normal 0.809006 0.587801 0
    outer loop
      vertex 37.7145 28.8767 0
      vertex 39.1178 26.9453 5
      vertex 39.1178 26.9453 0
    endloop
  endfacet
  facet normal 0.332829 -0.942987 0
    outer loop
      vertex 14.6783 -45.1752 0
      vertex 16.9296 -44.3806 5
      vertex 14.6783 -45.1752 5
    endloop
  endfacet
  facet normal 0.332829 -0.942987 0
    outer loop
      vertex 16.9296 -44.3806 5
      vertex 14.6783 -45.1752 0
      vertex 16.9296 -44.3806 0
    endloop
  endfacet
  facet normal 0.745938 0.666016 0
    outer loop
      vertex 36.216 30.7352 5
      vertex 34.626 32.516 0
      vertex 34.626 32.516 5
    endloop
  endfacet
  facet normal 0.745938 0.666016 0
    outer loop
      vertex 34.626 32.516 0
      vertex 36.216 30.7352 5
      vertex 36.216 30.7352 0
    endloop
  endfacet
  facet normal -0.988648 0.15025 0
    outer loop
      vertex -47.1255 5.95333 0
      vertex -46.7668 8.31359 5
      vertex -46.7668 8.31359 0
    endloop
  endfacet
  facet normal -0.988648 0.15025 0
    outer loop
      vertex -46.7668 8.31359 5
      vertex -47.1255 5.95333 0
      vertex -47.1255 5.95333 5
    endloop
  endfacet
  facet normal -0.693661 -0.720302 0
    outer loop
      vertex -33.7979 -33.3759 0
      vertex -32.0783 -35.0319 5
      vertex -33.7979 -33.3759 5
    endloop
  endfacet
  facet normal -0.693661 -0.720302 -0
    outer loop
      vertex -32.0783 -35.0319 5
      vertex -33.7979 -33.3759 0
      vertex -32.0783 -35.0319 0
    endloop
  endfacet
  facet normal 0.187405 0.982283 -0
    outer loop
      vertex 10.0703 46.4202 0
      vertex 7.72526 46.8676 5
      vertex 10.0703 46.4202 5
    endloop
  endfacet
  facet normal 0.187405 0.982283 0
    outer loop
      vertex 7.72526 46.8676 5
      vertex 10.0703 46.4202 0
      vertex 7.72526 46.8676 0
    endloop
  endfacet
  facet normal 0.863911 0.503644 0
    outer loop
      vertex 41.6246 22.8833 5
      vertex 40.4222 24.9458 0
      vertex 40.4222 24.9458 5
    endloop
  endfacet
  facet normal 0.863911 0.503644 0
    outer loop
      vertex 40.4222 24.9458 0
      vertex 41.6246 22.8833 5
      vertex 41.6246 22.8833 0
    endloop
  endfacet
  facet normal -0.823532 -0.56727 0
    outer loop
      vertex -38.4283 -27.9198 0
      vertex -39.7826 -25.9537 5
      vertex -39.7826 -25.9537 0
    endloop
  endfacet
  facet normal -0.823532 -0.56727 0
    outer loop
      vertex -39.7826 -25.9537 5
      vertex -38.4283 -27.9198 0
      vertex -38.4283 -27.9198 5
    endloop
  endfacet
  facet normal -0.162648 -0.986684 0
    outer loop
      vertex -8.90061 -46.6586 0
      vertex -6.54504 -47.0469 5
      vertex -8.90061 -46.6586 5
    endloop
  endfacet
  facet normal -0.162648 -0.986684 -0
    outer loop
      vertex -6.54504 -47.0469 5
      vertex -8.90061 -46.6586 0
      vertex -6.54504 -47.0469 0
    endloop
  endfacet
  facet normal -0.938732 0.344647 0
    outer loop
      vertex -44.9872 15.2448 0
      vertex -44.1644 17.4859 5
      vertex -44.1644 17.4859 0
    endloop
  endfacet
  facet normal -0.938732 0.344647 0
    outer loop
      vertex -44.1644 17.4859 5
      vertex -44.9872 15.2448 0
      vertex -44.9872 15.2448 5
    endloop
  endfacet
  facet normal 0.974529 0.224262 0
    outer loop
      vertex 46.5431 9.48622 5
      vertex 46.0077 11.8128 0
      vertex 46.0077 11.8128 5
    endloop
  endfacet
  facet normal 0.974529 0.224262 0
    outer loop
      vertex 46.0077 11.8128 0
      vertex 46.5431 9.48622 5
      vertex 46.5431 9.48622 0
    endloop
  endfacet
  facet normal -0.0126081 -0.999921 0
    outer loop
      vertex -1.79028 -47.4662 0
      vertex 0.596887 -47.4963 5
      vertex -1.79028 -47.4662 5
    endloop
  endfacet
  facet normal -0.0126081 -0.999921 -0
    outer loop
      vertex 0.596887 -47.4963 5
      vertex -1.79028 -47.4662 0
      vertex 0.596887 -47.4963 0
    endloop
  endfacet
  facet normal -0.899414 -0.437099 0
    outer loop
      vertex -42.1865 -21.83 0
      vertex -43.23 -19.6828 5
      vertex -43.23 -19.6828 0
    endloop
  endfacet
  facet normal -0.899414 -0.437099 0
    outer loop
      vertex -43.23 -19.6828 5
      vertex -42.1865 -21.83 0
      vertex -42.1865 -21.83 5
    endloop
  endfacet
  facet normal -0.112844 0.993613 0
    outer loop
      vertex -4.17293 47.3163 0
      vertex -6.54504 47.0469 5
      vertex -4.17293 47.3163 5
    endloop
  endfacet
  facet normal -0.112844 0.993613 0
    outer loop
      vertex -6.54504 47.0469 5
      vertex -4.17293 47.3163 0
      vertex -6.54504 47.0469 0
    endloop
  endfacet
  facet normal -0.968583 -0.248691 0
    outer loop
      vertex -45.6963 -12.9652 0
      vertex -46.29 -10.6529 5
      vertex -46.29 -10.6529 0
    endloop
  endfacet
  facet normal -0.968583 -0.248691 0
    outer loop
      vertex -46.29 -10.6529 5
      vertex -45.6963 -12.9652 0
      vertex -45.6963 -12.9652 5
    endloop
  endfacet
  facet normal -0.356379 0.934342 0
    outer loop
      vertex -15.8089 44.792 0
      vertex -18.0395 43.9412 5
      vertex -15.8089 44.792 5
    endloop
  endfacet
  facet normal -0.356379 0.934342 0
    outer loop
      vertex -18.0395 43.9412 5
      vertex -15.8089 44.792 0
      vertex -18.0395 43.9412 0
    endloop
  endfacet
  facet normal -0.260834 -0.965384 0
    outer loop
      vertex -13.5384 -45.5298 0
      vertex -11.2337 -46.1525 5
      vertex -13.5384 -45.5298 5
    endloop
  endfacet
  facet normal -0.260834 -0.965384 -0
    outer loop
      vertex -11.2337 -46.1525 5
      vertex -13.5384 -45.5298 0
      vertex -11.2337 -46.1525 0
    endloop
  endfacet
  facet normal -0.309043 -0.951048 0
    outer loop
      vertex -15.8089 -44.792 0
      vertex -13.5384 -45.5298 5
      vertex -15.8089 -44.792 5
    endloop
  endfacet
  facet normal -0.309043 -0.951048 -0
    outer loop
      vertex -13.5384 -45.5298 5
      vertex -15.8089 -44.792 0
      vertex -13.5384 -45.5298 0
    endloop
  endfacet
  facet normal -0.577579 -0.816335 0
    outer loop
      vertex -28.4005 -38.0744 0
      vertex -26.4516 -39.4533 5
      vertex -28.4005 -38.0744 5
    endloop
  endfacet
  facet normal -0.577579 -0.816335 -0
    outer loop
      vertex -26.4516 -39.4533 5
      vertex -28.4005 -38.0744 0
      vertex -26.4516 -39.4533 0
    endloop
  endfacet
  facet normal -0.062789 0.998027 0
    outer loop
      vertex -1.79028 47.4662 0
      vertex -4.17293 47.3163 5
      vertex -1.79028 47.4662 5
    endloop
  endfacet
  facet normal -0.062789 0.998027 0
    outer loop
      vertex -4.17293 47.3163 5
      vertex -1.79028 47.4662 0
      vertex -4.17293 47.3163 0
    endloop
  endfacet
  facet normal 0.88815 0.459553 0
    outer loop
      vertex 42.7217 20.763 5
      vertex 41.6246 22.8833 0
      vertex 41.6246 22.8833 5
    endloop
  endfacet
  facet normal 0.88815 0.459553 0
    outer loop
      vertex 41.6246 22.8833 0
      vertex 42.7217 20.763 5
      vertex 42.7217 20.763 0
    endloop
  endfacet
  facet normal -0.793994 -0.607926 0
    outer loop
      vertex -36.977 -29.8153 0
      vertex -38.4283 -27.9198 5
      vertex -38.4283 -27.9198 0
    endloop
  endfacet
  facet normal -0.793994 -0.607926 0
    outer loop
      vertex -38.4283 -27.9198 5
      vertex -36.977 -29.8153 0
      vertex -36.977 -29.8153 5
    endloop
  endfacet
  facet normal -0 0 1
    outer loop
      vertex -18.0395 -43.9412 5
      vertex -9.3 -45 5
      vertex -9.3 -9.3 5
    endloop
  endfacet
  facet normal 0 0 1
    outer loop
      vertex -9.3 -45 5
      vertex -13.5384 -45.5298 5
      vertex -11.2337 -46.1525 5
    endloop
  endfacet
  facet normal 0 0 1
    outer loop
      vertex -9.3 -45 5
      vertex -15.8089 -44.792 5
      vertex -13.5384 -45.5298 5
    endloop
  endfacet
  facet normal 0 0 1
    outer loop
      vertex -9.3 -45 5
      vertex -18.0395 -43.9412 5
      vertex -15.8089 -44.792 5
    endloop
  endfacet
  facet normal 0 0 1
    outer loop
      vertex -9.3 -9.3 5
      vertex -20.2245 -42.9793 5
      vertex -18.0395 -43.9412 5
    endloop
  endfacet
  facet normal 0 0 1
    outer loop
      vertex -9.3 -9.3 5
      vertex -22.3584 -41.9088 5
      vertex -20.2245 -42.9793 5
    endloop
  endfacet
  facet normal 0 0 1
    outer loop
      vertex -9.3 -9.3 5
      vertex -24.4359 -40.7325 5
      vertex -22.3584 -41.9088 5
    endloop
  endfacet
  facet normal 0 0 1
    outer loop
      vertex -9.3 -9.3 5
      vertex -26.4516 -39.4533 5
      vertex -24.4359 -40.7325 5
    endloop
  endfacet
  facet normal 0 0 1
    outer loop
      vertex -9.3 -9.3 5
      vertex -28.4005 -38.0744 5
      vertex -26.4516 -39.4533 5
    endloop
  endfacet
  facet normal 0 0 1
    outer loop
      vertex -9.3 -9.3 5
      vertex -30.2776 -36.5994 5
      vertex -28.4005 -38.0744 5
    endloop
  endfacet
  facet normal 0 0 1
    outer loop
      vertex -9.3 -9.3 5
      vertex -32.0783 -35.0319 5
      vertex -30.2776 -36.5994 5
    endloop
  endfacet
  facet normal 0 0 1
    outer loop
      vertex -9.3 -9.3 5
      vertex -33.7979 -33.3759 5
      vertex -32.0783 -35.0319 5
    endloop
  endfacet
  facet normal 0 0 1
    outer loop
      vertex -9.3 -9.3 5
      vertex -35.4322 -31.6356 5
      vertex -33.7979 -33.3759 5
    endloop
  endfacet
  facet normal 0 0 1
    outer loop
      vertex -9.3 -9.3 5
      vertex -36.977 -29.8153 5
      vertex -35.4322 -31.6356 5
    endloop
  endfacet
  facet normal 0 0 1
    outer loop
      vertex -9.3 -9.3 5
      vertex -38.4283 -27.9198 5
      vertex -36.977 -29.8153 5
    endloop
  endfacet
  facet normal 0 0 1
    outer loop
      vertex -9.3 -9.3 5
      vertex -39.7826 -25.9537 5
      vertex -38.4283 -27.9198 5
    endloop
  endfacet
  facet normal 0 0 1
    outer loop
      vertex -9.3 -9.3 5
      vertex -41.0364 -23.9221 5
      vertex -39.7826 -25.9537 5
    endloop
  endfacet
  facet normal 0 0 1
    outer loop
      vertex -9.3 -9.3 5
      vertex -42.1865 -21.83 5
      vertex -41.0364 -23.9221 5
    endloop
  endfacet
  facet normal 0 0 1
    outer loop
      vertex -9.3 -9.3 5
      vertex -43.23 -19.6828 5
      vertex -42.1865 -21.83 5
    endloop
  endfacet
  facet normal 0 0 1
    outer loop
      vertex -9.3 -9.3 5
      vertex -44.1644 -17.4859 5
      vertex -43.23 -19.6828 5
    endloop
  endfacet
  facet normal -0 0 1
    outer loop
      vertex -45 -9.3 5
      vertex -44.1644 -17.4859 5
      vertex -9.3 -9.3 5
    endloop
  endfacet
  facet normal 0 0 1
    outer loop
      vertex -44.1644 -17.4859 5
      vertex -45 -9.3 5
      vertex -44.9872 -15.2448 5
    endloop
  endfacet
  facet normal 0 0 1
    outer loop
      vertex -46.7668 8.31359 5
      vertex -45 9.3 5
      vertex -46.29 10.6529 5
    endloop
  endfacet
  facet normal 0 0 1
    outer loop
      vertex -45 -9.3 5
      vertex -45.6963 -12.9652 5
      vertex -44.9872 -15.2448 5
    endloop
  endfacet
  facet normal 0 0 1
    outer loop
      vertex -47.1255 5.95333 5
      vertex -45 9.3 5
      vertex -46.7668 8.31359 5
    endloop
  endfacet
  facet normal 0 0 1
    outer loop
      vertex -45 -9.3 5
      vertex -46.29 -10.6529 5
      vertex -45.6963 -12.9652 5
    endloop
  endfacet
  facet normal 0 0 1
    outer loop
      vertex -47.365 3.57802 5
      vertex -45 9.3 5
      vertex -47.1255 5.95333 5
    endloop
  endfacet
  facet normal 0 0 1
    outer loop
      vertex -45 -9.3 5
      vertex -46.7668 -8.31359 5
      vertex -46.29 -10.6529 5
    endloop
  endfacet
  facet normal 0 0 1
    outer loop
      vertex -47.485 1.19368 5
      vertex -45 9.3 5
      vertex -47.365 3.57802 5
    endloop
  endfacet
  facet normal 0 0 1
    outer loop
      vertex -45 -9.3 5
      vertex -47.1255 -5.95333 5
      vertex -46.7668 -8.31359 5
    endloop
  endfacet
  facet normal 0 0 1
    outer loop
      vertex -45 9.3 5
      vertex -47.485 1.19368 5
      vertex -45 -9.3 5
    endloop
  endfacet
  facet normal 0 0 1
    outer loop
      vertex -45 -9.3 5
      vertex -47.365 -3.57802 5
      vertex -47.1255 -5.95333 5
    endloop
  endfacet
  facet normal -0 0 1
    outer loop
      vertex -47.485 -1.19368 5
      vertex -45 -9.3 5
      vertex -47.485 1.19368 5
    endloop
  endfacet
  facet normal 0 0 1
    outer loop
      vertex -45 -9.3 5
      vertex -47.485 -1.19368 5
      vertex -47.365 -3.57802 5
    endloop
  endfacet
  facet normal 0 0 1
    outer loop
      vertex 7.72526 46.8676 5
      vertex 9.3 45 5
      vertex 10.0703 46.4202 5
    endloop
  endfacet
  facet normal 0 0 1
    outer loop
      vertex 5.36068 47.1965 5
      vertex 9.3 45 5
      vertex 7.72526 46.8676 5
    endloop
  endfacet
  facet normal 0 0 1
    outer loop
      vertex 2.98255 47.4063 5
      vertex 9.3 45 5
      vertex 5.36068 47.1965 5
    endloop
  endfacet
  facet normal 0 0 1
    outer loop
      vertex 0.596887 47.4963 5
      vertex 9.3 45 5
      vertex 2.98255 47.4063 5
    endloop
  endfacet
  facet normal 0 0 1
    outer loop
      vertex -9.3 45 5
      vertex 0.596887 47.4963 5
      vertex -1.79028 47.4662 5
    endloop
  endfacet
  facet normal 0 0 1
    outer loop
      vertex -9.3 45 5
      vertex -1.79028 47.4662 5
      vertex -4.17293 47.3163 5
    endloop
  endfacet
  facet normal 0 0 1
    outer loop
      vertex -9.3 45 5
      vertex -4.17293 47.3163 5
      vertex -6.54504 47.0469 5
    endloop
  endfacet
  facet normal 0 0 1
    outer loop
      vertex -9.3 45 5
      vertex -6.54504 47.0469 5
      vertex -8.90061 46.6586 5
    endloop
  endfacet
  facet normal 0 0 1
    outer loop
      vertex 0.596887 47.4963 5
      vertex -9.3 45 5
      vertex 9.3 45 5
    endloop
  endfacet
  facet normal -0 0 1
    outer loop
      vertex -11.2337 46.1525 5
      vertex -9.3 45 5
      vertex -8.90061 46.6586 5
    endloop
  endfacet
  facet normal -0 0 1
    outer loop
      vertex -13.5384 45.5298 5
      vertex -9.3 45 5
      vertex -11.2337 46.1525 5
    endloop
  endfacet
  facet normal 0 0 1
    outer loop
      vertex -15.8089 44.792 5
      vertex -9.3 45 5
      vertex -13.5384 45.5298 5
    endloop
  endfacet
  facet normal 0 0 1
    outer loop
      vertex -18.0395 43.9412 5
      vertex -9.3 45 5
      vertex -15.8089 44.792 5
    endloop
  endfacet
  facet normal 0 0 1
    outer loop
      vertex -9.3 45 5
      vertex -18.0395 43.9412 5
      vertex -9.3 9.3 5
    endloop
  endfacet
  facet normal -0 0 1
    outer loop
      vertex -20.2245 42.9793 5
      vertex -9.3 9.3 5
      vertex -18.0395 43.9412 5
    endloop
  endfacet
  facet normal -0 0 1
    outer loop
      vertex -22.3584 41.9088 5
      vertex -9.3 9.3 5
      vertex -20.2245 42.9793 5
    endloop
  endfacet
  facet normal -0 0 1
    outer loop
      vertex -24.4359 40.7325 5
      vertex -9.3 9.3 5
      vertex -22.3584 41.9088 5
    endloop
  endfacet
  facet normal -0 0 1
    outer loop
      vertex -26.4516 39.4533 5
      vertex -9.3 9.3 5
      vertex -24.4359 40.7325 5
    endloop
  endfacet
  facet normal -0 0 1
    outer loop
      vertex -28.4005 38.0744 5
      vertex -9.3 9.3 5
      vertex -26.4516 39.4533 5
    endloop
  endfacet
  facet normal -0 0 1
    outer loop
      vertex -30.2776 36.5994 5
      vertex -9.3 9.3 5
      vertex -28.4005 38.0744 5
    endloop
  endfacet
  facet normal -0 0 1
    outer loop
      vertex -32.0783 35.0319 5
      vertex -9.3 9.3 5
      vertex -30.2776 36.5994 5
    endloop
  endfacet
  facet normal -0 0 1
    outer loop
      vertex -33.7979 33.3759 5
      vertex -9.3 9.3 5
      vertex -32.0783 35.0319 5
    endloop
  endfacet
  facet normal -0 0 1
    outer loop
      vertex -35.4322 31.6356 5
      vertex -9.3 9.3 5
      vertex -33.7979 33.3759 5
    endloop
  endfacet
  facet normal -0 0 1
    outer loop
      vertex -36.977 29.8153 5
      vertex -9.3 9.3 5
      vertex -35.4322 31.6356 5
    endloop
  endfacet
  facet normal -0 0 1
    outer loop
      vertex -38.4283 27.9198 5
      vertex -9.3 9.3 5
      vertex -36.977 29.8153 5
    endloop
  endfacet
  facet normal -0 0 1
    outer loop
      vertex -39.7826 25.9537 5
      vertex -9.3 9.3 5
      vertex -38.4283 27.9198 5
    endloop
  endfacet
  facet normal -0 0 1
    outer loop
      vertex -41.0364 23.9221 5
      vertex -9.3 9.3 5
      vertex -39.7826 25.9537 5
    endloop
  endfacet
  facet normal -0 0 1
    outer loop
      vertex -42.1865 21.83 5
      vertex -9.3 9.3 5
      vertex -41.0364 23.9221 5
    endloop
  endfacet
  facet normal -0 0 1
    outer loop
      vertex -43.23 19.6828 5
      vertex -9.3 9.3 5
      vertex -42.1865 21.83 5
    endloop
  endfacet
  facet normal -0 0 1
    outer loop
      vertex -44.1644 17.4859 5
      vertex -9.3 9.3 5
      vertex -43.23 19.6828 5
    endloop
  endfacet
  facet normal 0 0 1
    outer loop
      vertex -45 9.3 5
      vertex -44.1644 17.4859 5
      vertex -44.9872 15.2448 5
    endloop
  endfacet
  facet normal 0 0 1
    outer loop
      vertex -44.1644 17.4859 5
      vertex -45 9.3 5
      vertex -9.3 9.3 5
    endloop
  endfacet
  facet normal -0 0 1
    outer loop
      vertex -46.29 10.6529 5
      vertex -45 9.3 5
      vertex -45.6963 12.9652 5
    endloop
  endfacet
  facet normal -0 0 1
    outer loop
      vertex -45.6963 12.9652 5
      vertex -45 9.3 5
      vertex -44.9872 15.2448 5
    endloop
  endfacet
  facet normal 0 0 1
    outer loop
      vertex 45 9.3 5
      vertex 47.5 0 5
      vertex 47.44 2.3866 5
    endloop
  endfacet
  facet normal 0 0 1
    outer loop
      vertex 45 9.3 5
      vertex 47.44 2.3866 5
      vertex 47.2602 4.76718 5
    endloop
  endfacet
  facet normal 0 0 1
    outer loop
      vertex 45 -9.3 5
      vertex 47.5 0 5
      vertex 45 9.3 5
    endloop
  endfacet
  facet normal 0 0 1
    outer loop
      vertex 45 9.3 5
      vertex 47.2602 4.76718 5
      vertex 46.961 7.13571 5
    endloop
  endfacet
  facet normal 0 0 1
    outer loop
      vertex 47.5 0 5
      vertex 45 -9.3 5
      vertex 47.44 -2.3866 5
    endloop
  endfacet
  facet normal -0 0 1
    outer loop
      vertex 45 9.3 5
      vertex 46.961 7.13571 5
      vertex 46.5431 9.48622 5
    endloop
  endfacet
  facet normal 0 0 1
    outer loop
      vertex 47.44 -2.3866 5
      vertex 45 -9.3 5
      vertex 47.2602 -4.76718 5
    endloop
  endfacet
  facet normal 0 0 1
    outer loop
      vertex 45 9.3 5
      vertex 46.5431 9.48622 5
      vertex 46.0077 11.8128 5
    endloop
  endfacet
  facet normal 0 0 1
    outer loop
      vertex 47.2602 -4.76718 5
      vertex 45 -9.3 5
      vertex 46.961 -7.13571 5
    endloop
  endfacet
  facet normal 0 0 1
    outer loop
      vertex 45 9.3 5
      vertex 46.0077 11.8128 5
      vertex 45.3561 14.1095 5
    endloop
  endfacet
  facet normal 0 0 1
    outer loop
      vertex 46.961 -7.13571 5
      vertex 45 -9.3 5
      vertex 46.5431 -9.48622 5
    endloop
  endfacet
  facet normal 0 0 1
    outer loop
      vertex 46.5431 -9.48622 5
      vertex 45 -9.3 5
      vertex 46.0077 -11.8128 5
    endloop
  endfacet
  facet normal 0 0 1
    outer loop
      vertex 44.5899 16.3705 5
      vertex 45 9.3 5
      vertex 45.3561 14.1095 5
    endloop
  endfacet
  facet normal 0 0 1
    outer loop
      vertex 43.711 18.5902 5
      vertex 45 9.3 5
      vertex 44.5899 16.3705 5
    endloop
  endfacet
  facet normal 0 0 1
    outer loop
      vertex 9.3 9.3 5
      vertex 43.711 18.5902 5
      vertex 42.7217 20.763 5
    endloop
  endfacet
  facet normal 0 0 1
    outer loop
      vertex 9.3 9.3 5
      vertex 42.7217 20.763 5
      vertex 41.6246 22.8833 5
    endloop
  endfacet
  facet normal 0 0 1
    outer loop
      vertex 9.3 9.3 5
      vertex 41.6246 22.8833 5
      vertex 40.4222 24.9458 5
    endloop
  endfacet
  facet normal 0 0 1
    outer loop
      vertex 9.3 9.3 5
      vertex 40.4222 24.9458 5
      vertex 39.1178 26.9453 5
    endloop
  endfacet
  facet normal 0 0 1
    outer loop
      vertex 9.3 9.3 5
      vertex 39.1178 26.9453 5
      vertex 37.7145 28.8767 5
    endloop
  endfacet
  facet normal 0 0 1
    outer loop
      vertex 9.3 9.3 5
      vertex 37.7145 28.8767 5
      vertex 36.216 30.7352 5
    endloop
  endfacet
  facet normal 0 0 1
    outer loop
      vertex 9.3 9.3 5
      vertex 36.216 30.7352 5
      vertex 34.626 32.516 5
    endloop
  endfacet
  facet normal 0 0 1
    outer loop
      vertex 9.3 9.3 5
      vertex 34.626 32.516 5
      vertex 32.9485 34.2147 5
    endloop
  endfacet
  facet normal 0 0 1
    outer loop
      vertex 9.3 9.3 5
      vertex 32.9485 34.2147 5
      vertex 31.1878 35.8269 5
    endloop
  endfacet
  facet normal 0 0 1
    outer loop
      vertex 9.3 9.3 5
      vertex 31.1878 35.8269 5
      vertex 29.3483 37.3487 5
    endloop
  endfacet
  facet normal 0 0 1
    outer loop
      vertex 9.3 9.3 5
      vertex 29.3483 37.3487 5
      vertex 27.4347 38.7761 5
    endloop
  endfacet
  facet normal 0 0 1
    outer loop
      vertex 9.3 9.3 5
      vertex 27.4347 38.7761 5
      vertex 25.4518 40.1056 5
    endloop
  endfacet
  facet normal 0 0 1
    outer loop
      vertex 9.3 9.3 5
      vertex 25.4518 40.1056 5
      vertex 23.4045 41.3337 5
    endloop
  endfacet
  facet normal 0 0 1
    outer loop
      vertex 9.3 9.3 5
      vertex 23.4045 41.3337 5
      vertex 21.2982 42.4575 5
    endloop
  endfacet
  facet normal 0 0 1
    outer loop
      vertex 9.3 9.3 5
      vertex 21.2982 42.4575 5
      vertex 19.1381 43.474 5
    endloop
  endfacet
  facet normal 0 0 1
    outer loop
      vertex 9.3 45 5
      vertex 19.1381 43.474 5
      vertex 16.9296 44.3806 5
    endloop
  endfacet
  facet normal -0 0 1
    outer loop
      vertex 9.3 45 5
      vertex 16.9296 44.3806 5
      vertex 14.6783 45.1752 5
    endloop
  endfacet
  facet normal 0 0 1
    outer loop
      vertex 9.3 45 5
      vertex 14.6783 45.1752 5
      vertex 12.39 45.8556 5
    endloop
  endfacet
  facet normal 0 0 1
    outer loop
      vertex 9.3 45 5
      vertex 12.39 45.8556 5
      vertex 10.0703 46.4202 5
    endloop
  endfacet
  facet normal 0 0 1
    outer loop
      vertex 19.1381 43.474 5
      vertex 9.3 45 5
      vertex 9.3 9.3 5
    endloop
  endfacet
  facet normal 0 0 1
    outer loop
      vertex 43.711 18.5902 5
      vertex 9.3 9.3 5
      vertex 45 9.3 5
    endloop
  endfacet
  facet normal 0 0 1
    outer loop
      vertex 46.0077 -11.8128 5
      vertex 45 -9.3 5
      vertex 45.3561 -14.1095 5
    endloop
  endfacet
  facet normal 0 0 1
    outer loop
      vertex 45 -9.3 5
      vertex 44.5899 -16.3705 5
      vertex 45.3561 -14.1095 5
    endloop
  endfacet
  facet normal 0 0 1
    outer loop
      vertex 45 -9.3 5
      vertex 43.711 -18.5902 5
      vertex 44.5899 -16.3705 5
    endloop
  endfacet
  facet normal -0 0 1
    outer loop
      vertex 9.3 -9.3 5
      vertex 43.711 -18.5902 5
      vertex 45 -9.3 5
    endloop
  endfacet
  facet normal 0 0 1
    outer loop
      vertex 43.711 -18.5902 5
      vertex 9.3 -9.3 5
      vertex 42.7217 -20.763 5
    endloop
  endfacet
  facet normal 0 0 1
    outer loop
      vertex 42.7217 -20.763 5
      vertex 9.3 -9.3 5
      vertex 41.6246 -22.8833 5
    endloop
  endfacet
  facet normal 0 0 1
    outer loop
      vertex 41.6246 -22.8833 5
      vertex 9.3 -9.3 5
      vertex 40.4222 -24.9458 5
    endloop
  endfacet
  facet normal 0 0 1
    outer loop
      vertex 40.4222 -24.9458 5
      vertex 9.3 -9.3 5
      vertex 39.1178 -26.9453 5
    endloop
  endfacet
  facet normal 0 0 1
    outer loop
      vertex 39.1178 -26.9453 5
      vertex 9.3 -9.3 5
      vertex 37.7145 -28.8767 5
    endloop
  endfacet
  facet normal 0 0 1
    outer loop
      vertex 37.7145 -28.8767 5
      vertex 9.3 -9.3 5
      vertex 36.216 -30.7352 5
    endloop
  endfacet
  facet normal 0 0 1
    outer loop
      vertex 36.216 -30.7352 5
      vertex 9.3 -9.3 5
      vertex 34.626 -32.516 5
    endloop
  endfacet
  facet normal 0 0 1
    outer loop
      vertex 34.626 -32.516 5
      vertex 9.3 -9.3 5
      vertex 32.9485 -34.2147 5
    endloop
  endfacet
  facet normal 0 0 1
    outer loop
      vertex 32.9485 -34.2147 5
      vertex 9.3 -9.3 5
      vertex 31.1878 -35.8269 5
    endloop
  endfacet
  facet normal 0 0 1
    outer loop
      vertex 31.1878 -35.8269 5
      vertex 9.3 -9.3 5
      vertex 29.3483 -37.3487 5
    endloop
  endfacet
  facet normal 0 0 1
    outer loop
      vertex 29.3483 -37.3487 5
      vertex 9.3 -9.3 5
      vertex 27.4347 -38.7761 5
    endloop
  endfacet
  facet normal 0 0 1
    outer loop
      vertex 27.4347 -38.7761 5
      vertex 9.3 -9.3 5
      vertex 25.4518 -40.1056 5
    endloop
  endfacet
  facet normal 0 0 1
    outer loop
      vertex 25.4518 -40.1056 5
      vertex 9.3 -9.3 5
      vertex 23.4045 -41.3337 5
    endloop
  endfacet
  facet normal 0 0 1
    outer loop
      vertex 23.4045 -41.3337 5
      vertex 9.3 -9.3 5
      vertex 21.2982 -42.4575 5
    endloop
  endfacet
  facet normal 0 0 1
    outer loop
      vertex 21.2982 -42.4575 5
      vertex 9.3 -9.3 5
      vertex 19.1381 -43.474 5
    endloop
  endfacet
  facet normal 0 0 1
    outer loop
      vertex 9.3 -45 5
      vertex 19.1381 -43.474 5
      vertex 9.3 -9.3 5
    endloop
  endfacet
  facet normal 0 0 1
    outer loop
      vertex 19.1381 -43.474 5
      vertex 9.3 -45 5
      vertex 16.9296 -44.3806 5
    endloop
  endfacet
  facet normal 0 0 1
    outer loop
      vertex 16.9296 -44.3806 5
      vertex 9.3 -45 5
      vertex 14.6783 -45.1752 5
    endloop
  endfacet
  facet normal 0 0 1
    outer loop
      vertex 14.6783 -45.1752 5
      vertex 9.3 -45 5
      vertex 12.39 -45.8556 5
    endloop
  endfacet
  facet normal 0 0 1
    outer loop
      vertex 12.39 -45.8556 5
      vertex 9.3 -45 5
      vertex 10.0703 -46.4202 5
    endloop
  endfacet
  facet normal 0 0 1
    outer loop
      vertex 9.3 -45 5
      vertex 7.72526 -46.8676 5
      vertex 10.0703 -46.4202 5
    endloop
  endfacet
  facet normal 0 0 1
    outer loop
      vertex 9.3 -45 5
      vertex 5.36068 -47.1965 5
      vertex 7.72526 -46.8676 5
    endloop
  endfacet
  facet normal 0 0 1
    outer loop
      vertex 9.3 -45 5
      vertex 2.98255 -47.4063 5
      vertex 5.36068 -47.1965 5
    endloop
  endfacet
  facet normal 0 0 1
    outer loop
      vertex 9.3 -45 5
      vertex 0.596887 -47.4963 5
      vertex 2.98255 -47.4063 5
    endloop
  endfacet
  facet normal -0 0 1
    outer loop
      vertex -9.3 -45 5
      vertex 0.596887 -47.4963 5
      vertex 9.3 -45 5
    endloop
  endfacet
  facet normal 0 0 1
    outer loop
      vertex 0.596887 -47.4963 5
      vertex -9.3 -45 5
      vertex -1.79028 -47.4662 5
    endloop
  endfacet
  facet normal 0 0 1
    outer loop
      vertex -1.79028 -47.4662 5
      vertex -9.3 -45 5
      vertex -4.17293 -47.3163 5
    endloop
  endfacet
  facet normal 0 0 1
    outer loop
      vertex -4.17293 -47.3163 5
      vertex -9.3 -45 5
      vertex -6.54504 -47.0469 5
    endloop
  endfacet
  facet normal 0 0 1
    outer loop
      vertex -6.54504 -47.0469 5
      vertex -9.3 -45 5
      vertex -8.90061 -46.6586 5
    endloop
  endfacet
  facet normal 0 0 1
    outer loop
      vertex -8.90061 -46.6586 5
      vertex -9.3 -45 5
      vertex -11.2337 -46.1525 5
    endloop
  endfacet
  facet normal -0.920223 -0.391395 0
    outer loop
      vertex -43.23 -19.6828 0
      vertex -44.1644 -17.4859 5
      vertex -44.1644 -17.4859 0
    endloop
  endfacet
  facet normal -0.920223 -0.391395 0
    outer loop
      vertex -44.1644 -17.4859 5
      vertex -43.23 -19.6828 0
      vertex -43.23 -19.6828 5
    endloop
  endfacet
  facet normal -1 0 0
    outer loop
      vertex 7.3 7.3 72.2
      vertex 7.3 45 75
      vertex 7.3 45 72.2
    endloop
  endfacet
  facet normal -1 -0 0
    outer loop
      vertex 7.3 45 75
      vertex 7.3 7.3 72.2
      vertex 7.3 7.3 75
    endloop
  endfacet
  facet normal -1 0 0
    outer loop
      vertex 7.3 -45 72.2
      vertex 7.3 -7.3 75
      vertex 7.3 -7.3 72.2
    endloop
  endfacet
  facet normal -1 -0 0
    outer loop
      vertex 7.3 -7.3 75
      vertex 7.3 -45 72.2
      vertex 7.3 -45 75
    endloop
  endfacet
  facet normal -0 0 1
    outer loop
      vertex -45 7.3 72.2
      vertex -7.3 -7.3 72.2
      vertex -7.3 7.3 72.2
    endloop
  endfacet
  facet normal 0 0 1
    outer loop
      vertex -7.3 -7.3 72.2
      vertex -45 7.3 72.2
      vertex -45 -7.3 72.2
    endloop
  endfacet
  facet normal 0 0 1
    outer loop
      vertex -7.3 7.3 72.2
      vertex 7.3 7.3 72.2
      vertex 7.3 45 72.2
    endloop
  endfacet
  facet normal 0 0 1
    outer loop
      vertex 7.3 7.3 72.2
      vertex -7.3 7.3 72.2
      vertex 7.3 -7.3 72.2
    endloop
  endfacet
  facet normal 0 0 1
    outer loop
      vertex -7.3 7.3 72.2
      vertex 7.3 45 72.2
      vertex -7.3 45 72.2
    endloop
  endfacet
  facet normal 0 0 1
    outer loop
      vertex -7.3 -7.3 72.2
      vertex 7.3 -7.3 72.2
      vertex -7.3 7.3 72.2
    endloop
  endfacet
  facet normal 0 0 1
    outer loop
      vertex 7.3 -7.3 72.2
      vertex -7.3 -7.3 72.2
      vertex 7.3 -45 72.2
    endloop
  endfacet
  facet normal 0 0 1
    outer loop
      vertex 7.3 -45 72.2
      vertex -7.3 -7.3 72.2
      vertex -7.3 -45 72.2
    endloop
  endfacet
  facet normal -0 0 1
    outer loop
      vertex 7.3 7.3 72.2
      vertex 45 -7.3 72.2
      vertex 45 7.3 72.2
    endloop
  endfacet
  facet normal 0 0 1
    outer loop
      vertex 45 -7.3 72.2
      vertex 7.3 7.3 72.2
      vertex 7.3 -7.3 72.2
    endloop
  endfacet
  facet normal 1 -0 0
    outer loop
      vertex -7.3 7.3 75
      vertex -7.3 45 72.2
      vertex -7.3 45 75
    endloop
  endfacet
  facet normal 1 0 0
    outer loop
      vertex -7.3 45 72.2
      vertex -7.3 7.3 75
      vertex -7.3 7.3 72.2
    endloop
  endfacet
  facet normal 1 -0 0
    outer loop
      vertex -7.3 -45 75
      vertex -7.3 -7.3 72.2
      vertex -7.3 -7.3 75
    endloop
  endfacet
  facet normal 1 0 0
    outer loop
      vertex -7.3 -7.3 72.2
      vertex -7.3 -45 75
      vertex -7.3 -45 72.2
    endloop
  endfacet
  facet normal 0 -1 0
    outer loop
      vertex -45 7.3 72.2
      vertex -7.3 7.3 75
      vertex -45 7.3 75
    endloop
  endfacet
  facet normal 0 -1 -0
    outer loop
      vertex -7.3 7.3 75
      vertex -45 7.3 72.2
      vertex -7.3 7.3 72.2
    endloop
  endfacet
  facet normal 0 -1 0
    outer loop
      vertex 7.3 7.3 72.2
      vertex 45 7.3 75
      vertex 7.3 7.3 75
    endloop
  endfacet
  facet normal 0 -1 -0
    outer loop
      vertex 45 7.3 75
      vertex 7.3 7.3 72.2
      vertex 45 7.3 72.2
    endloop
  endfacet
  facet normal 0 1 -0
    outer loop
      vertex -7.3 -7.3 72.2
      vertex -45 -7.3 75
      vertex -7.3 -7.3 75
    endloop
  endfacet
  facet normal 0 1 0
    outer loop
      vertex -45 -7.3 75
      vertex -7.3 -7.3 72.2
      vertex -45 -7.3 72.2
    endloop
  endfacet
  facet normal 0 1 -0
    outer loop
      vertex 45 -7.3 72.2
      vertex 7.3 -7.3 75
      vertex 45 -7.3 75
    endloop
  endfacet
  facet normal 0 1 0
    outer loop
      vertex 7.3 -7.3 75
      vertex 45 -7.3 72.2
      vertex 7.3 -7.3 72.2
    endloop
  endfacet
endsolid OpenSCAD_Model
