solid OpenSCAD_Model
  facet normal 0 1 -0
    outer loop
      vertex -8.98114 1.5 29.8444
      vertex -25 1.5 30
      vertex -7.98892 1.5 30
    endloop
  endfacet
  facet normal 0 1 -0
    outer loop
      vertex -12.9795 1.5 27.9064
      vertex -25 1.5 30
      vertex -8.98114 1.5 29.8444
    endloop
  endfacet
  facet normal 0 1 -0
    outer loop
      vertex -16.6205 1.5 24.7705
      vertex -25 1.5 30
      vertex -12.9795 1.5 27.9064
    endloop
  endfacet
  facet normal 0 1 -0
    outer loop
      vertex -19.7448 1.5 20.5739
      vertex -25 1.5 30
      vertex -16.6205 1.5 24.7705
    endloop
  endfacet
  facet normal 0 1 -0
    outer loop
      vertex -22.2159 1.5 15.5
      vertex -25 1.5 30
      vertex -19.7448 1.5 20.5739
    endloop
  endfacet
  facet normal 0 1 -0
    outer loop
      vertex -23.9259 1.5 9.77051
      vertex -25 1.5 30
      vertex -22.2159 1.5 15.5
    endloop
  endfacet
  facet normal 0 1 -0
    outer loop
      vertex -24.8 1.5 3.63585
      vertex -25 1.5 30
      vertex -23.9259 1.5 9.77051
    endloop
  endfacet
  facet normal 0 1 0
    outer loop
      vertex -25 1.5 0
      vertex -24.8 1.5 3.63585
      vertex -24.8 1.5 0
    endloop
  endfacet
  facet normal 0 1 0
    outer loop
      vertex -24.8 1.5 3.63585
      vertex -25 1.5 0
      vertex -25 1.5 30
    endloop
  endfacet
  facet normal -0 0 1
    outer loop
      vertex -25 1.5 30
      vertex -7.98892 -2.5 30
      vertex -7.98892 1.5 30
    endloop
  endfacet
  facet normal 0 0 1
    outer loop
      vertex -7.98892 -2.5 30
      vertex -25 1.5 30
      vertex -25 -2.5 30
    endloop
  endfacet
  facet normal -1 0 0
    outer loop
      vertex -25 -2.5 0
      vertex -25 1.5 30
      vertex -25 1.5 0
    endloop
  endfacet
  facet normal -1 -0 0
    outer loop
      vertex -25 1.5 30
      vertex -25 -2.5 0
      vertex -25 -2.5 30
    endloop
  endfacet
  facet normal 0 -1 0
    outer loop
      vertex -25 -2.5 30
      vertex -8.98114 -2.5 29.8444
      vertex -7.98892 -2.5 30
    endloop
  endfacet
  facet normal 0 -1 0
    outer loop
      vertex -25 -2.5 30
      vertex -12.9795 -2.5 27.9064
      vertex -8.98114 -2.5 29.8444
    endloop
  endfacet
  facet normal 0 -1 0
    outer loop
      vertex -25 -2.5 30
      vertex -16.6205 -2.5 24.7705
      vertex -12.9795 -2.5 27.9064
    endloop
  endfacet
  facet normal 0 -1 0
    outer loop
      vertex -25 -2.5 30
      vertex -19.7448 -2.5 20.5739
      vertex -16.6205 -2.5 24.7705
    endloop
  endfacet
  facet normal 0 -1 0
    outer loop
      vertex -25 -2.5 30
      vertex -22.2159 -2.5 15.5
      vertex -19.7448 -2.5 20.5739
    endloop
  endfacet
  facet normal 0 -1 0
    outer loop
      vertex -25 -2.5 30
      vertex -23.9259 -2.5 9.77051
      vertex -22.2159 -2.5 15.5
    endloop
  endfacet
  facet normal 0 -1 0
    outer loop
      vertex -25 -2.5 30
      vertex -24.8 -2.5 3.63585
      vertex -23.9259 -2.5 9.77051
    endloop
  endfacet
  facet normal 0 -1 0
    outer loop
      vertex -25 -2.5 0
      vertex -24.8 -2.5 3.63585
      vertex -25 -2.5 30
    endloop
  endfacet
  facet normal 0 -1 -0
    outer loop
      vertex -24.8 -2.5 3.63585
      vertex -25 -2.5 0
      vertex -24.8 -2.5 0
    endloop
  endfacet
  facet normal 0 0 -1
    outer loop
      vertex -25 -2.5 0
      vertex -24.8 1.5 0
      vertex -24.8 -2.5 0
    endloop
  endfacet
  facet normal -0 0 -1
    outer loop
      vertex -24.8 1.5 0
      vertex -25 -2.5 0
      vertex -25 1.5 0
    endloop
  endfacet
  facet normal 0.990001 0 -0.141061
    outer loop
      vertex -23.9259 -2.5 9.77051
      vertex -24.8 1.5 3.63585
      vertex -23.9259 1.5 9.77051
    endloop
  endfacet
  facet normal 0.990001 0 -0.141061
    outer loop
      vertex -24.8 1.5 3.63585
      vertex -23.9259 -2.5 9.77051
      vertex -24.8 -2.5 3.63585
    endloop
  endfacet
  facet normal 0.154927 0 -0.987926
    outer loop
      vertex -8.98114 -2.5 29.8444
      vertex -7.98892 1.5 30
      vertex -7.98892 -2.5 30
    endloop
  endfacet
  facet normal 0.154927 0 -0.987926
    outer loop
      vertex -7.98892 1.5 30
      vertex -8.98114 -2.5 29.8444
      vertex -8.98114 1.5 29.8444
    endloop
  endfacet
  facet normal 0.436164 0 -0.899867
    outer loop
      vertex -12.9795 -2.5 27.9064
      vertex -8.98114 1.5 29.8444
      vertex -8.98114 -2.5 29.8444
    endloop
  endfacet
  facet normal 0.436164 0 -0.899867
    outer loop
      vertex -8.98114 1.5 29.8444
      vertex -12.9795 -2.5 27.9064
      vertex -12.9795 1.5 27.9064
    endloop
  endfacet
  facet normal 1 -0 0
    outer loop
      vertex -24.8 -2.5 3.63585
      vertex -24.8 1.5 0
      vertex -24.8 1.5 3.63585
    endloop
  endfacet
  facet normal 1 0 0
    outer loop
      vertex -24.8 1.5 0
      vertex -24.8 -2.5 3.63585
      vertex -24.8 -2.5 0
    endloop
  endfacet
  facet normal 0.958233 0 -0.28599
    outer loop
      vertex -22.2159 -2.5 15.5
      vertex -23.9259 1.5 9.77051
      vertex -22.2159 1.5 15.5
    endloop
  endfacet
  facet normal 0.958233 0 -0.28599
    outer loop
      vertex -23.9259 1.5 9.77051
      vertex -22.2159 -2.5 15.5
      vertex -23.9259 -2.5 9.77051
    endloop
  endfacet
  facet normal 0.652594 0 -0.757708
    outer loop
      vertex -16.6205 -2.5 24.7705
      vertex -12.9795 1.5 27.9064
      vertex -12.9795 -2.5 27.9064
    endloop
  endfacet
  facet normal 0.652594 0 -0.757708
    outer loop
      vertex -12.9795 1.5 27.9064
      vertex -16.6205 -2.5 24.7705
      vertex -16.6205 1.5 24.7705
    endloop
  endfacet
  facet normal 0.802119 0 -0.597164
    outer loop
      vertex -16.6205 -2.5 24.7705
      vertex -19.7448 1.5 20.5739
      vertex -16.6205 1.5 24.7705
    endloop
  endfacet
  facet normal 0.802119 0 -0.597164
    outer loop
      vertex -19.7448 1.5 20.5739
      vertex -16.6205 -2.5 24.7705
      vertex -19.7448 -2.5 20.5739
    endloop
  endfacet
  facet normal 0.899046 0 -0.437855
    outer loop
      vertex -19.7448 -2.5 20.5739
      vertex -22.2159 1.5 15.5
      vertex -19.7448 1.5 20.5739
    endloop
  endfacet
  facet normal 0.899046 0 -0.437855
    outer loop
      vertex -22.2159 1.5 15.5
      vertex -19.7448 -2.5 20.5739
      vertex -22.2159 -2.5 15.5
    endloop
  endfacet
endsolid OpenSCAD_Model
