solid OpenSCAD_Model
  facet normal 0.929776 0.368125 0
    outer loop
      vertex 2.42146 0.621724 8
      vertex 2.19077 1.20438 2
      vertex 2.19077 1.20438 8
    endloop
  endfacet
  facet normal 0.929776 0.368125 0
    outer loop
      vertex 2.19077 1.20438 2
      vertex 2.42146 0.621724 8
      vertex 2.42146 0.621724 2
    endloop
  endfacet
  facet normal 0.992115 0.12533 0
    outer loop
      vertex 2.5 0 8
      vertex 2.42146 0.621724 2
      vertex 2.42146 0.621724 8
    endloop
  endfacet
  facet normal 0.992115 0.12533 0
    outer loop
      vertex 2.42146 0.621724 2
      vertex 2.5 0 8
      vertex 2.5 0 2
    endloop
  endfacet
  facet normal 0.809017 0.587785 0
    outer loop
      vertex 2.19077 1.20438 8
      vertex 1.82242 1.71137 2
      vertex 1.82242 1.71137 8
    endloop
  endfacet
  facet normal 0.809017 0.587785 0
    outer loop
      vertex 1.82242 1.71137 2
      vertex 2.19077 1.20438 8
      vertex 2.19077 1.20438 2
    endloop
  endfacet
  facet normal -1 0 0
    outer loop
      vertex -2.48029 -0.313333 2
      vertex -2.48029 0.313333 8
      vertex -2.48029 0.313333 2
    endloop
  endfacet
  facet normal -1 -0 0
    outer loop
      vertex -2.48029 0.313333 8
      vertex -2.48029 -0.313333 2
      vertex -2.48029 -0.313333 8
    endloop
  endfacet
  facet normal 0.187388 -0.982286 0
    outer loop
      vertex 0.156976 -2.49507 2
      vertex 0.772542 -2.37764 8
      vertex 0.156976 -2.49507 8
    endloop
  endfacet
  facet normal 0.187388 -0.982286 0
    outer loop
      vertex 0.772542 -2.37764 8
      vertex 0.156976 -2.49507 2
      vertex 0.772542 -2.37764 2
    endloop
  endfacet
  facet normal 0.992115 -0.12533 0
    outer loop
      vertex 2.42146 -0.621724 8
      vertex 2.5 0 2
      vertex 2.5 0 8
    endloop
  endfacet
  facet normal 0.992115 -0.12533 0
    outer loop
      vertex 2.5 0 2
      vertex 2.42146 -0.621724 8
      vertex 2.42146 -0.621724 2
    endloop
  endfacet
  facet normal 0.637426 0.770512 -0
    outer loop
      vertex 1.82242 1.71137 2
      vertex 1.33957 2.11082 8
      vertex 1.82242 1.71137 8
    endloop
  endfacet
  facet normal 0.637426 0.770512 0
    outer loop
      vertex 1.33957 2.11082 8
      vertex 1.82242 1.71137 2
      vertex 1.33957 2.11082 2
    endloop
  endfacet
  facet normal -0.728971 0.684545 0
    outer loop
      vertex -2.02254 1.46946 2
      vertex -1.59356 1.92628 8
      vertex -1.59356 1.92628 2
    endloop
  endfacet
  facet normal -0.728971 0.684545 0
    outer loop
      vertex -1.59356 1.92628 8
      vertex -2.02254 1.46946 2
      vertex -2.02254 1.46946 8
    endloop
  endfacet
  facet normal 0 0 -1
    outer loop
      vertex 1.2 0 0
      vertex 5 0 0
      vertex 4.84292 -1.24345 0
    endloop
  endfacet
  facet normal 0 0 -1
    outer loop
      vertex 1.1623 -0.298428 0
      vertex 4.84292 -1.24345 0
      vertex 4.38153 -2.40877 0
    endloop
  endfacet
  facet normal 0 0 -1
    outer loop
      vertex 5 0 0
      vertex 1.2 0 0
      vertex 4.84292 1.24345 0
    endloop
  endfacet
  facet normal 0 0 -1
    outer loop
      vertex 1.05157 -0.578104 0
      vertex 4.38153 -2.40877 0
      vertex 3.64484 -3.42274 0
    endloop
  endfacet
  facet normal 0 0 -1
    outer loop
      vertex 1.1623 0.298428 0
      vertex 4.84292 1.24345 0
      vertex 1.2 0 0
    endloop
  endfacet
  facet normal 0 0 -1
    outer loop
      vertex 0.874762 -0.821456 0
      vertex 3.64484 -3.42274 0
      vertex 2.67913 -4.22164 0
    endloop
  endfacet
  facet normal -0 0 -1
    outer loop
      vertex 4.84292 1.24345 0
      vertex 1.1623 0.298428 0
      vertex 4.38153 2.40877 0
    endloop
  endfacet
  facet normal 0 0 -1
    outer loop
      vertex 0.642992 -1.01319 0
      vertex 2.67913 -4.22164 0
      vertex 1.54508 -4.75528 0
    endloop
  endfacet
  facet normal 0 0 -1
    outer loop
      vertex 1.05157 0.578104 0
      vertex 4.38153 2.40877 0
      vertex 1.1623 0.298428 0
    endloop
  endfacet
  facet normal -0 0 -1
    outer loop
      vertex 4.38153 2.40877 0
      vertex 1.05157 0.578104 0
      vertex 3.64484 3.42274 0
    endloop
  endfacet
  facet normal 0 0 -1
    outer loop
      vertex 4.84292 -1.24345 0
      vertex 1.1623 -0.298428 0
      vertex 1.2 0 0
    endloop
  endfacet
  facet normal 0 0 -1
    outer loop
      vertex 4.38153 -2.40877 0
      vertex 1.05157 -0.578104 0
      vertex 1.1623 -0.298428 0
    endloop
  endfacet
  facet normal 0 0 -1
    outer loop
      vertex 3.64484 -3.42274 0
      vertex 0.874762 -0.821456 0
      vertex 1.05157 -0.578104 0
    endloop
  endfacet
  facet normal 0 0 -1
    outer loop
      vertex 2.67913 -4.22164 0
      vertex 0.642992 -1.01319 0
      vertex 0.874762 -0.821456 0
    endloop
  endfacet
  facet normal 0 0 -1
    outer loop
      vertex 1.54508 -4.75528 0
      vertex 0.37082 -1.14127 0
      vertex 0.642992 -1.01319 0
    endloop
  endfacet
  facet normal 0 0 -1
    outer loop
      vertex 0.313952 -4.99013 0
      vertex 0.37082 -1.14127 0
      vertex 1.54508 -4.75528 0
    endloop
  endfacet
  facet normal 0 0 -1
    outer loop
      vertex 0.313952 -4.99013 0
      vertex 0.0753479 -1.19763 0
      vertex 0.37082 -1.14127 0
    endloop
  endfacet
  facet normal 0 0 -1
    outer loop
      vertex 0.313952 -4.99013 0
      vertex -0.224857 -1.17874 0
      vertex 0.0753479 -1.19763 0
    endloop
  endfacet
  facet normal 0 0 -1
    outer loop
      vertex -0.936906 -4.91144 0
      vertex -0.224857 -1.17874 0
      vertex 0.313952 -4.99013 0
    endloop
  endfacet
  facet normal -0 0 -1
    outer loop
      vertex -0.224857 -1.17874 0
      vertex -0.936906 -4.91144 0
      vertex -0.510935 -1.08579 0
    endloop
  endfacet
  facet normal 0 0 -1
    outer loop
      vertex -2.1289 -4.52413 0
      vertex -0.510935 -1.08579 0
      vertex -0.936906 -4.91144 0
    endloop
  endfacet
  facet normal -0 0 -1
    outer loop
      vertex -0.510935 -1.08579 0
      vertex -2.1289 -4.52413 0
      vertex -0.764908 -0.924616 0
    endloop
  endfacet
  facet normal 0 0 -1
    outer loop
      vertex -3.18712 -3.85257 0
      vertex -0.764908 -0.924616 0
      vertex -2.1289 -4.52413 0
    endloop
  endfacet
  facet normal -0 0 -1
    outer loop
      vertex -0.764908 -0.924616 0
      vertex -3.18712 -3.85257 0
      vertex -0.970819 -0.705342 0
    endloop
  endfacet
  facet normal -0 0 -1
    outer loop
      vertex -0.970819 -0.705342 0
      vertex -4.04508 -2.93893 0
      vertex -1.11573 -0.441749 0
    endloop
  endfacet
  facet normal 0 0 -1
    outer loop
      vertex -4.04508 -2.93893 0
      vertex -0.970819 -0.705342 0
      vertex -3.18712 -3.85257 0
    endloop
  endfacet
  facet normal 0 0 -1
    outer loop
      vertex 0.874762 0.821456 0
      vertex 3.64484 3.42274 0
      vertex 1.05157 0.578104 0
    endloop
  endfacet
  facet normal -0 0 -1
    outer loop
      vertex 3.64484 3.42274 0
      vertex 0.874762 0.821456 0
      vertex 2.67913 4.22164 0
    endloop
  endfacet
  facet normal 0 0 -1
    outer loop
      vertex 0.642992 1.01319 0
      vertex 2.67913 4.22164 0
      vertex 0.874762 0.821456 0
    endloop
  endfacet
  facet normal -0 0 -1
    outer loop
      vertex 2.67913 4.22164 0
      vertex 0.642992 1.01319 0
      vertex 1.54508 4.75528 0
    endloop
  endfacet
  facet normal 0 0 -1
    outer loop
      vertex 0.37082 1.14127 0
      vertex 1.54508 4.75528 0
      vertex 0.642992 1.01319 0
    endloop
  endfacet
  facet normal 0 0 -1
    outer loop
      vertex 0.37082 1.14127 0
      vertex 0.313952 4.99013 0
      vertex 1.54508 4.75528 0
    endloop
  endfacet
  facet normal 0 0 -1
    outer loop
      vertex 0.0753479 1.19763 0
      vertex 0.313952 4.99013 0
      vertex 0.37082 1.14127 0
    endloop
  endfacet
  facet normal 0 0 -1
    outer loop
      vertex -0.224857 1.17874 0
      vertex 0.313952 4.99013 0
      vertex 0.0753479 1.19763 0
    endloop
  endfacet
  facet normal 0 0 -1
    outer loop
      vertex -0.936906 4.91144 0
      vertex -0.224857 1.17874 0
      vertex -0.510935 1.08579 0
    endloop
  endfacet
  facet normal 0 0 -1
    outer loop
      vertex -2.1289 4.52413 0
      vertex -0.510935 1.08579 0
      vertex -0.764908 0.924616 0
    endloop
  endfacet
  facet normal 0 0 -1
    outer loop
      vertex -0.224857 1.17874 0
      vertex -0.936906 4.91144 0
      vertex 0.313952 4.99013 0
    endloop
  endfacet
  facet normal 0 0 -1
    outer loop
      vertex -3.18712 3.85257 0
      vertex -0.764908 0.924616 0
      vertex -0.970819 0.705342 0
    endloop
  endfacet
  facet normal 0 0 -1
    outer loop
      vertex -4.04508 2.93893 0
      vertex -0.970819 0.705342 0
      vertex -1.11573 0.441749 0
    endloop
  endfacet
  facet normal 0 0 -1
    outer loop
      vertex -4.64888 1.84062 0
      vertex -1.11573 0.441749 0
      vertex -1.19054 0.150399 0
    endloop
  endfacet
  facet normal 0 0 -1
    outer loop
      vertex -4.64888 -1.84062 0
      vertex -1.11573 -0.441749 0
      vertex -4.04508 -2.93893 0
    endloop
  endfacet
  facet normal 0 0 -1
    outer loop
      vertex -0.510935 1.08579 0
      vertex -2.1289 4.52413 0
      vertex -0.936906 4.91144 0
    endloop
  endfacet
  facet normal -0 0 -1
    outer loop
      vertex -1.11573 -0.441749 0
      vertex -4.64888 -1.84062 0
      vertex -1.19054 -0.150399 0
    endloop
  endfacet
  facet normal 0 0 -1
    outer loop
      vertex -0.764908 0.924616 0
      vertex -3.18712 3.85257 0
      vertex -2.1289 4.52413 0
    endloop
  endfacet
  facet normal 0 0 -1
    outer loop
      vertex -4.96057 -0.626666 0
      vertex -1.19054 -0.150399 0
      vertex -4.64888 -1.84062 0
    endloop
  endfacet
  facet normal 0 0 -1
    outer loop
      vertex -0.970819 0.705342 0
      vertex -4.04508 2.93893 0
      vertex -3.18712 3.85257 0
    endloop
  endfacet
  facet normal -0 0 -1
    outer loop
      vertex -1.19054 -0.150399 0
      vertex -4.96057 -0.626666 0
      vertex -1.19054 0.150399 0
    endloop
  endfacet
  facet normal 0 0 -1
    outer loop
      vertex -1.11573 0.441749 0
      vertex -4.64888 1.84062 0
      vertex -4.04508 2.93893 0
    endloop
  endfacet
  facet normal 0 0 -1
    outer loop
      vertex -4.96057 0.626666 0
      vertex -1.19054 0.150399 0
      vertex -4.96057 -0.626666 0
    endloop
  endfacet
  facet normal 0 0 -1
    outer loop
      vertex -1.19054 0.150399 0
      vertex -4.96057 0.626666 0
      vertex -4.64888 1.84062 0
    endloop
  endfacet
  facet normal 0 0 1
    outer loop
      vertex 1.2 0 8
      vertex 2.5 0 8
      vertex 2.42146 0.621724 8
    endloop
  endfacet
  facet normal 0 0 1
    outer loop
      vertex 1.1623 0.298428 8
      vertex 2.42146 0.621724 8
      vertex 2.19077 1.20438 8
    endloop
  endfacet
  facet normal 0 0 1
    outer loop
      vertex 2.5 0 8
      vertex 1.2 0 8
      vertex 2.42146 -0.621724 8
    endloop
  endfacet
  facet normal 0 0 1
    outer loop
      vertex 1.05157 0.578104 8
      vertex 2.19077 1.20438 8
      vertex 1.82242 1.71137 8
    endloop
  endfacet
  facet normal -0 0 1
    outer loop
      vertex 1.1623 -0.298428 8
      vertex 2.42146 -0.621724 8
      vertex 1.2 0 8
    endloop
  endfacet
  facet normal 0 0 1
    outer loop
      vertex 0.874762 0.821456 8
      vertex 1.82242 1.71137 8
      vertex 1.33957 2.11082 8
    endloop
  endfacet
  facet normal 0 0 1
    outer loop
      vertex 2.42146 -0.621724 8
      vertex 1.1623 -0.298428 8
      vertex 2.19077 -1.20438 8
    endloop
  endfacet
  facet normal -0 0 1
    outer loop
      vertex 1.05157 -0.578104 8
      vertex 2.19077 -1.20438 8
      vertex 1.1623 -0.298428 8
    endloop
  endfacet
  facet normal 0 0 1
    outer loop
      vertex 2.42146 0.621724 8
      vertex 1.1623 0.298428 8
      vertex 1.2 0 8
    endloop
  endfacet
  facet normal 0 0 1
    outer loop
      vertex 2.19077 1.20438 8
      vertex 1.05157 0.578104 8
      vertex 1.1623 0.298428 8
    endloop
  endfacet
  facet normal 0 0 1
    outer loop
      vertex 1.82242 1.71137 8
      vertex 0.874762 0.821456 8
      vertex 1.05157 0.578104 8
    endloop
  endfacet
  facet normal 0 0 1
    outer loop
      vertex 0.642992 1.01319 8
      vertex 1.33957 2.11082 8
      vertex 0.772542 2.37764 8
    endloop
  endfacet
  facet normal 0 0 1
    outer loop
      vertex 1.33957 2.11082 8
      vertex 0.642992 1.01319 8
      vertex 0.874762 0.821456 8
    endloop
  endfacet
  facet normal 0 0 1
    outer loop
      vertex 0.772542 2.37764 8
      vertex 0.37082 1.14127 8
      vertex 0.642992 1.01319 8
    endloop
  endfacet
  facet normal 0 0 1
    outer loop
      vertex 0.156976 2.49507 8
      vertex 0.37082 1.14127 8
      vertex 0.772542 2.37764 8
    endloop
  endfacet
  facet normal 0 0 1
    outer loop
      vertex 0.156976 2.49507 8
      vertex 0.0753479 1.19763 8
      vertex 0.37082 1.14127 8
    endloop
  endfacet
  facet normal 0 0 1
    outer loop
      vertex 0.156976 2.49507 8
      vertex -0.224857 1.17874 8
      vertex 0.0753479 1.19763 8
    endloop
  endfacet
  facet normal -0 0 1
    outer loop
      vertex -0.468452 2.45572 8
      vertex -0.224857 1.17874 8
      vertex 0.156976 2.49507 8
    endloop
  endfacet
  facet normal 0 0 1
    outer loop
      vertex -0.468452 2.45572 8
      vertex -0.510935 1.08579 8
      vertex -0.224857 1.17874 8
    endloop
  endfacet
  facet normal -0 0 1
    outer loop
      vertex -1.06445 2.26207 8
      vertex -0.510935 1.08579 8
      vertex -0.468452 2.45572 8
    endloop
  endfacet
  facet normal 0 0 1
    outer loop
      vertex -0.510935 1.08579 8
      vertex -1.06445 2.26207 8
      vertex -0.764908 0.924616 8
    endloop
  endfacet
  facet normal -0 0 1
    outer loop
      vertex -1.59356 1.92628 8
      vertex -0.764908 0.924616 8
      vertex -1.06445 2.26207 8
    endloop
  endfacet
  facet normal 0 0 1
    outer loop
      vertex -0.764908 0.924616 8
      vertex -1.59356 1.92628 8
      vertex -0.970819 0.705342 8
    endloop
  endfacet
  facet normal -0 0 1
    outer loop
      vertex -2.02254 1.46946 8
      vertex -0.970819 0.705342 8
      vertex -1.59356 1.92628 8
    endloop
  endfacet
  facet normal -0 0 1
    outer loop
      vertex -2.32444 0.920311 8
      vertex -1.11573 0.441749 8
      vertex -2.02254 1.46946 8
    endloop
  endfacet
  facet normal 0 0 1
    outer loop
      vertex -0.970819 0.705342 8
      vertex -2.02254 1.46946 8
      vertex -1.11573 0.441749 8
    endloop
  endfacet
  facet normal 0 0 1
    outer loop
      vertex 2.19077 -1.20438 8
      vertex 1.05157 -0.578104 8
      vertex 1.82242 -1.71137 8
    endloop
  endfacet
  facet normal -0 0 1
    outer loop
      vertex 0.874762 -0.821456 8
      vertex 1.82242 -1.71137 8
      vertex 1.05157 -0.578104 8
    endloop
  endfacet
  facet normal 0 0 1
    outer loop
      vertex 1.82242 -1.71137 8
      vertex 0.874762 -0.821456 8
      vertex 1.33957 -2.11082 8
    endloop
  endfacet
  facet normal -0 0 1
    outer loop
      vertex 0.642992 -1.01319 8
      vertex 1.33957 -2.11082 8
      vertex 0.874762 -0.821456 8
    endloop
  endfacet
  facet normal 0 0 1
    outer loop
      vertex 1.33957 -2.11082 8
      vertex 0.642992 -1.01319 8
      vertex 0.772542 -2.37764 8
    endloop
  endfacet
  facet normal -0 0 1
    outer loop
      vertex 0.37082 -1.14127 8
      vertex 0.772542 -2.37764 8
      vertex 0.642992 -1.01319 8
    endloop
  endfacet
  facet normal 0 0 1
    outer loop
      vertex 0.37082 -1.14127 8
      vertex 0.156976 -2.49507 8
      vertex 0.772542 -2.37764 8
    endloop
  endfacet
  facet normal -0 0 1
    outer loop
      vertex 0.0753479 -1.19763 8
      vertex 0.156976 -2.49507 8
      vertex 0.37082 -1.14127 8
    endloop
  endfacet
  facet normal 0 0 1
    outer loop
      vertex -0.224857 -1.17874 8
      vertex 0.156976 -2.49507 8
      vertex 0.0753479 -1.19763 8
    endloop
  endfacet
  facet normal 0 0 1
    outer loop
      vertex -0.224857 -1.17874 8
      vertex -0.468452 -2.45572 8
      vertex 0.156976 -2.49507 8
    endloop
  endfacet
  facet normal 0 0 1
    outer loop
      vertex -0.510935 -1.08579 8
      vertex -0.468452 -2.45572 8
      vertex -0.224857 -1.17874 8
    endloop
  endfacet
  facet normal 0 0 1
    outer loop
      vertex -1.06445 -2.26207 8
      vertex -0.510935 -1.08579 8
      vertex -0.764908 -0.924616 8
    endloop
  endfacet
  facet normal 0 0 1
    outer loop
      vertex -1.59356 -1.92628 8
      vertex -0.764908 -0.924616 8
      vertex -0.970819 -0.705342 8
    endloop
  endfacet
  facet normal 0 0 1
    outer loop
      vertex -0.510935 -1.08579 8
      vertex -1.06445 -2.26207 8
      vertex -0.468452 -2.45572 8
    endloop
  endfacet
  facet normal 0 0 1
    outer loop
      vertex -2.02254 -1.46946 8
      vertex -0.970819 -0.705342 8
      vertex -1.11573 -0.441749 8
    endloop
  endfacet
  facet normal 0 0 1
    outer loop
      vertex -2.32444 -0.920311 8
      vertex -1.11573 -0.441749 8
      vertex -1.19054 -0.150399 8
    endloop
  endfacet
  facet normal 0 0 1
    outer loop
      vertex -1.11573 0.441749 8
      vertex -2.32444 0.920311 8
      vertex -1.19054 0.150399 8
    endloop
  endfacet
  facet normal 0 0 1
    outer loop
      vertex -0.764908 -0.924616 8
      vertex -1.59356 -1.92628 8
      vertex -1.06445 -2.26207 8
    endloop
  endfacet
  facet normal -0 0 1
    outer loop
      vertex -2.48029 0.313333 8
      vertex -1.19054 0.150399 8
      vertex -2.32444 0.920311 8
    endloop
  endfacet
  facet normal 0 0 1
    outer loop
      vertex -0.970819 -0.705342 8
      vertex -2.02254 -1.46946 8
      vertex -1.59356 -1.92628 8
    endloop
  endfacet
  facet normal 0 0 1
    outer loop
      vertex -1.19054 0.150399 8
      vertex -2.48029 0.313333 8
      vertex -1.19054 -0.150399 8
    endloop
  endfacet
  facet normal 0 0 1
    outer loop
      vertex -1.11573 -0.441749 8
      vertex -2.32444 -0.920311 8
      vertex -2.02254 -1.46946 8
    endloop
  endfacet
  facet normal 0 0 1
    outer loop
      vertex -2.48029 -0.313333 8
      vertex -1.19054 -0.150399 8
      vertex -2.48029 0.313333 8
    endloop
  endfacet
  facet normal 0 0 1
    outer loop
      vertex -1.19054 -0.150399 8
      vertex -2.48029 -0.313333 8
      vertex -2.32444 -0.920311 8
    endloop
  endfacet
  facet normal -0.876305 0.481757 0
    outer loop
      vertex -2.32444 0.920311 2
      vertex -2.02254 1.46946 8
      vertex -2.02254 1.46946 2
    endloop
  endfacet
  facet normal -0.876305 0.481757 0
    outer loop
      vertex -2.02254 1.46946 8
      vertex -2.32444 0.920311 2
      vertex -2.32444 0.920311 8
    endloop
  endfacet
  facet normal -0.309015 0.951057 0
    outer loop
      vertex -0.468452 2.45572 2
      vertex -1.06445 2.26207 8
      vertex -0.468452 2.45572 8
    endloop
  endfacet
  facet normal -0.309015 0.951057 0
    outer loop
      vertex -1.06445 2.26207 8
      vertex -0.468452 2.45572 2
      vertex -1.06445 2.26207 2
    endloop
  endfacet
  facet normal 0.425775 0.904829 -0
    outer loop
      vertex 1.33957 2.11082 2
      vertex 0.772542 2.37764 8
      vertex 1.33957 2.11082 8
    endloop
  endfacet
  facet normal 0.425775 0.904829 0
    outer loop
      vertex 0.772542 2.37764 8
      vertex 1.33957 2.11082 2
      vertex 0.772542 2.37764 2
    endloop
  endfacet
  facet normal -0.968581 -0.248697 0
    outer loop
      vertex -2.32444 -0.920311 2
      vertex -2.48029 -0.313333 8
      vertex -2.48029 -0.313333 2
    endloop
  endfacet
  facet normal -0.968581 -0.248697 0
    outer loop
      vertex -2.48029 -0.313333 8
      vertex -2.32444 -0.920311 2
      vertex -2.32444 -0.920311 8
    endloop
  endfacet
  facet normal 0.929776 -0.368125 0
    outer loop
      vertex 2.19077 -1.20438 8
      vertex 2.42146 -0.621724 2
      vertex 2.42146 -0.621724 8
    endloop
  endfacet
  facet normal 0.929776 -0.368125 0
    outer loop
      vertex 2.42146 -0.621724 2
      vertex 2.19077 -1.20438 8
      vertex 2.19077 -1.20438 2
    endloop
  endfacet
  facet normal 0.809017 -0.587785 0
    outer loop
      vertex 1.82242 -1.71137 8
      vertex 2.19077 -1.20438 2
      vertex 2.19077 -1.20438 8
    endloop
  endfacet
  facet normal 0.809017 -0.587785 0
    outer loop
      vertex 2.19077 -1.20438 2
      vertex 1.82242 -1.71137 8
      vertex 1.82242 -1.71137 2
    endloop
  endfacet
  facet normal 0.637426 -0.770512 0
    outer loop
      vertex 1.33957 -2.11082 2
      vertex 1.82242 -1.71137 8
      vertex 1.33957 -2.11082 8
    endloop
  endfacet
  facet normal 0.637426 -0.770512 0
    outer loop
      vertex 1.82242 -1.71137 8
      vertex 1.33957 -2.11082 2
      vertex 1.82242 -1.71137 2
    endloop
  endfacet
  facet normal -0.968581 0.248697 0
    outer loop
      vertex -2.48029 0.313333 2
      vertex -2.32444 0.920311 8
      vertex -2.32444 0.920311 2
    endloop
  endfacet
  facet normal -0.968581 0.248697 0
    outer loop
      vertex -2.32444 0.920311 8
      vertex -2.48029 0.313333 2
      vertex -2.48029 0.313333 8
    endloop
  endfacet
  facet normal 0.187388 0.982286 -0
    outer loop
      vertex 0.772542 2.37764 2
      vertex 0.156976 2.49507 8
      vertex 0.772542 2.37764 8
    endloop
  endfacet
  facet normal 0.187388 0.982286 0
    outer loop
      vertex 0.156976 2.49507 8
      vertex 0.772542 2.37764 2
      vertex 0.156976 2.49507 2
    endloop
  endfacet
  facet normal -0.0627928 0.998027 0
    outer loop
      vertex 0.156976 2.49507 2
      vertex -0.468452 2.45572 8
      vertex 0.156976 2.49507 8
    endloop
  endfacet
  facet normal -0.0627928 0.998027 0
    outer loop
      vertex -0.468452 2.45572 8
      vertex 0.156976 2.49507 2
      vertex -0.468452 2.45572 2
    endloop
  endfacet
  facet normal -0.535834 0.844323 0
    outer loop
      vertex -1.06445 2.26207 2
      vertex -1.59356 1.92628 8
      vertex -1.06445 2.26207 8
    endloop
  endfacet
  facet normal -0.535834 0.844323 0
    outer loop
      vertex -1.59356 1.92628 8
      vertex -1.06445 2.26207 2
      vertex -1.59356 1.92628 2
    endloop
  endfacet
  facet normal 0.425775 -0.904829 0
    outer loop
      vertex 0.772542 -2.37764 2
      vertex 1.33957 -2.11082 8
      vertex 0.772542 -2.37764 8
    endloop
  endfacet
  facet normal 0.425775 -0.904829 0
    outer loop
      vertex 1.33957 -2.11082 8
      vertex 0.772542 -2.37764 2
      vertex 1.33957 -2.11082 2
    endloop
  endfacet
  facet normal -0.728971 -0.684545 0
    outer loop
      vertex -1.59356 -1.92628 2
      vertex -2.02254 -1.46946 8
      vertex -2.02254 -1.46946 2
    endloop
  endfacet
  facet normal -0.728971 -0.684545 0
    outer loop
      vertex -2.02254 -1.46946 8
      vertex -1.59356 -1.92628 2
      vertex -1.59356 -1.92628 8
    endloop
  endfacet
  facet normal -0.876305 -0.481757 0
    outer loop
      vertex -2.02254 -1.46946 2
      vertex -2.32444 -0.920311 8
      vertex -2.32444 -0.920311 2
    endloop
  endfacet
  facet normal -0.876305 -0.481757 0
    outer loop
      vertex -2.32444 -0.920311 8
      vertex -2.02254 -1.46946 2
      vertex -2.02254 -1.46946 8
    endloop
  endfacet
  facet normal -0.0627928 -0.998027 0
    outer loop
      vertex -0.468452 -2.45572 2
      vertex 0.156976 -2.49507 8
      vertex -0.468452 -2.45572 8
    endloop
  endfacet
  facet normal -0.0627928 -0.998027 -0
    outer loop
      vertex 0.156976 -2.49507 8
      vertex -0.468452 -2.45572 2
      vertex 0.156976 -2.49507 2
    endloop
  endfacet
  facet normal -0.309015 -0.951057 0
    outer loop
      vertex -1.06445 -2.26207 2
      vertex -0.468452 -2.45572 8
      vertex -1.06445 -2.26207 8
    endloop
  endfacet
  facet normal -0.309015 -0.951057 -0
    outer loop
      vertex -0.468452 -2.45572 8
      vertex -1.06445 -2.26207 2
      vertex -0.468452 -2.45572 2
    endloop
  endfacet
  facet normal -0.535834 -0.844323 0
    outer loop
      vertex -1.59356 -1.92628 2
      vertex -1.06445 -2.26207 8
      vertex -1.59356 -1.92628 8
    endloop
  endfacet
  facet normal -0.535834 -0.844323 -0
    outer loop
      vertex -1.06445 -2.26207 8
      vertex -1.59356 -1.92628 2
      vertex -1.06445 -2.26207 2
    endloop
  endfacet
  facet normal 0.929775 0.36813 0
    outer loop
      vertex 4.84292 1.24345 2
      vertex 4.38153 2.40877 0
      vertex 4.38153 2.40877 2
    endloop
  endfacet
  facet normal 0.929775 0.36813 0
    outer loop
      vertex 4.38153 2.40877 0
      vertex 4.84292 1.24345 2
      vertex 4.84292 1.24345 0
    endloop
  endfacet
  facet normal 0.992115 0.12533 0
    outer loop
      vertex 5 0 2
      vertex 4.84292 1.24345 0
      vertex 4.84292 1.24345 2
    endloop
  endfacet
  facet normal 0.992115 0.12533 0
    outer loop
      vertex 4.84292 1.24345 0
      vertex 5 0 2
      vertex 5 0 0
    endloop
  endfacet
  facet normal 0.809018 0.587784 0
    outer loop
      vertex 4.38153 2.40877 2
      vertex 3.64484 3.42274 0
      vertex 3.64484 3.42274 2
    endloop
  endfacet
  facet normal 0.809018 0.587784 0
    outer loop
      vertex 3.64484 3.42274 0
      vertex 4.38153 2.40877 2
      vertex 4.38153 2.40877 0
    endloop
  endfacet
  facet normal 0.187381 0.982287 -0
    outer loop
      vertex 1.54508 4.75528 0
      vertex 0.313952 4.99013 2
      vertex 1.54508 4.75528 2
    endloop
  endfacet
  facet normal 0.187381 0.982287 0
    outer loop
      vertex 0.313952 4.99013 2
      vertex 1.54508 4.75528 0
      vertex 0.313952 4.99013 0
    endloop
  endfacet
  facet normal 0.637422 0.770515 -0
    outer loop
      vertex 3.64484 3.42274 0
      vertex 2.67913 4.22164 2
      vertex 3.64484 3.42274 2
    endloop
  endfacet
  facet normal 0.637422 0.770515 0
    outer loop
      vertex 2.67913 4.22164 2
      vertex 3.64484 3.42274 0
      vertex 2.67913 4.22164 0
    endloop
  endfacet
  facet normal -0.728971 0.684545 0
    outer loop
      vertex -4.04508 2.93893 0
      vertex -3.18712 3.85257 2
      vertex -3.18712 3.85257 0
    endloop
  endfacet
  facet normal -0.728971 0.684545 0
    outer loop
      vertex -3.18712 3.85257 2
      vertex -4.04508 2.93893 0
      vertex -4.04508 2.93893 2
    endloop
  endfacet
  facet normal 0.929775 -0.36813 0
    outer loop
      vertex 4.38153 -2.40877 2
      vertex 4.84292 -1.24345 0
      vertex 4.84292 -1.24345 2
    endloop
  endfacet
  facet normal 0.929775 -0.36813 0
    outer loop
      vertex 4.84292 -1.24345 0
      vertex 4.38153 -2.40877 2
      vertex 4.38153 -2.40877 0
    endloop
  endfacet
  facet normal -0.876307 -0.481753 0
    outer loop
      vertex -4.04508 -2.93893 0
      vertex -4.64888 -1.84062 2
      vertex -4.64888 -1.84062 0
    endloop
  endfacet
  facet normal -0.876307 -0.481753 0
    outer loop
      vertex -4.64888 -1.84062 2
      vertex -4.04508 -2.93893 0
      vertex -4.04508 -2.93893 2
    endloop
  endfacet
  facet normal -0.728971 -0.684545 0
    outer loop
      vertex -3.18712 -3.85257 0
      vertex -4.04508 -2.93893 2
      vertex -4.04508 -2.93893 0
    endloop
  endfacet
  facet normal -0.728971 -0.684545 0
    outer loop
      vertex -4.04508 -2.93893 2
      vertex -3.18712 -3.85257 0
      vertex -3.18712 -3.85257 2
    endloop
  endfacet
  facet normal -0.0627847 -0.998027 0
    outer loop
      vertex -0.936906 -4.91144 0
      vertex 0.313952 -4.99013 2
      vertex -0.936906 -4.91144 2
    endloop
  endfacet
  facet normal -0.0627847 -0.998027 -0
    outer loop
      vertex 0.313952 -4.99013 2
      vertex -0.936906 -4.91144 0
      vertex 0.313952 -4.99013 0
    endloop
  endfacet
  facet normal 0.637422 -0.770515 0
    outer loop
      vertex 2.67913 -4.22164 0
      vertex 3.64484 -3.42274 2
      vertex 2.67913 -4.22164 2
    endloop
  endfacet
  facet normal 0.637422 -0.770515 0
    outer loop
      vertex 3.64484 -3.42274 2
      vertex 2.67913 -4.22164 0
      vertex 3.64484 -3.42274 0
    endloop
  endfacet
  facet normal 0.992115 -0.12533 0
    outer loop
      vertex 4.84292 -1.24345 2
      vertex 5 0 0
      vertex 5 0 2
    endloop
  endfacet
  facet normal 0.992115 -0.12533 0
    outer loop
      vertex 5 0 0
      vertex 4.84292 -1.24345 2
      vertex 4.84292 -1.24345 0
    endloop
  endfacet
  facet normal 0.809018 -0.587784 0
    outer loop
      vertex 3.64484 -3.42274 2
      vertex 4.38153 -2.40877 0
      vertex 4.38153 -2.40877 2
    endloop
  endfacet
  facet normal 0.809018 -0.587784 0
    outer loop
      vertex 4.38153 -2.40877 0
      vertex 3.64484 -3.42274 2
      vertex 3.64484 -3.42274 0
    endloop
  endfacet
  facet normal -1 0 0
    outer loop
      vertex -4.96057 -0.626666 0
      vertex -4.96057 0.626666 2
      vertex -4.96057 0.626666 0
    endloop
  endfacet
  facet normal -1 -0 0
    outer loop
      vertex -4.96057 0.626666 2
      vertex -4.96057 -0.626666 0
      vertex -4.96057 -0.626666 2
    endloop
  endfacet
  facet normal 0.425777 0.904828 -0
    outer loop
      vertex 2.67913 4.22164 0
      vertex 1.54508 4.75528 2
      vertex 2.67913 4.22164 2
    endloop
  endfacet
  facet normal 0.425777 0.904828 0
    outer loop
      vertex 1.54508 4.75528 2
      vertex 2.67913 4.22164 0
      vertex 1.54508 4.75528 0
    endloop
  endfacet
  facet normal -0.876307 0.481753 0
    outer loop
      vertex -4.64888 1.84062 0
      vertex -4.04508 2.93893 2
      vertex -4.04508 2.93893 0
    endloop
  endfacet
  facet normal -0.876307 0.481753 0
    outer loop
      vertex -4.04508 2.93893 2
      vertex -4.64888 1.84062 0
      vertex -4.64888 1.84062 2
    endloop
  endfacet
  facet normal -0.309023 0.951055 0
    outer loop
      vertex -0.936906 4.91144 0
      vertex -2.1289 4.52413 2
      vertex -0.936906 4.91144 2
    endloop
  endfacet
  facet normal -0.309023 0.951055 0
    outer loop
      vertex -2.1289 4.52413 2
      vertex -0.936906 4.91144 0
      vertex -2.1289 4.52413 0
    endloop
  endfacet
  facet normal 0.425777 -0.904828 0
    outer loop
      vertex 1.54508 -4.75528 0
      vertex 2.67913 -4.22164 2
      vertex 1.54508 -4.75528 2
    endloop
  endfacet
  facet normal 0.425777 -0.904828 0
    outer loop
      vertex 2.67913 -4.22164 2
      vertex 1.54508 -4.75528 0
      vertex 2.67913 -4.22164 0
    endloop
  endfacet
  facet normal -0.535823 0.84433 0
    outer loop
      vertex -2.1289 4.52413 0
      vertex -3.18712 3.85257 2
      vertex -2.1289 4.52413 2
    endloop
  endfacet
  facet normal -0.535823 0.84433 0
    outer loop
      vertex -3.18712 3.85257 2
      vertex -2.1289 4.52413 0
      vertex -3.18712 3.85257 0
    endloop
  endfacet
  facet normal 0.187381 -0.982287 0
    outer loop
      vertex 0.313952 -4.99013 0
      vertex 1.54508 -4.75528 2
      vertex 0.313952 -4.99013 2
    endloop
  endfacet
  facet normal 0.187381 -0.982287 0
    outer loop
      vertex 1.54508 -4.75528 2
      vertex 0.313952 -4.99013 0
      vertex 1.54508 -4.75528 0
    endloop
  endfacet
  facet normal -0.968583 -0.24869 0
    outer loop
      vertex -4.64888 -1.84062 0
      vertex -4.96057 -0.626666 2
      vertex -4.96057 -0.626666 0
    endloop
  endfacet
  facet normal -0.968583 -0.24869 0
    outer loop
      vertex -4.96057 -0.626666 2
      vertex -4.64888 -1.84062 0
      vertex -4.64888 -1.84062 2
    endloop
  endfacet
  facet normal -0.309023 -0.951055 0
    outer loop
      vertex -2.1289 -4.52413 0
      vertex -0.936906 -4.91144 2
      vertex -2.1289 -4.52413 2
    endloop
  endfacet
  facet normal -0.309023 -0.951055 -0
    outer loop
      vertex -0.936906 -4.91144 2
      vertex -2.1289 -4.52413 0
      vertex -0.936906 -4.91144 0
    endloop
  endfacet
  facet normal -0.0627847 0.998027 0
    outer loop
      vertex 0.313952 4.99013 0
      vertex -0.936906 4.91144 2
      vertex 0.313952 4.99013 2
    endloop
  endfacet
  facet normal -0.0627847 0.998027 0
    outer loop
      vertex -0.936906 4.91144 2
      vertex 0.313952 4.99013 0
      vertex -0.936906 4.91144 0
    endloop
  endfacet
  facet normal 0 0 1
    outer loop
      vertex 2.5 0 2
      vertex 5 0 2
      vertex 4.84292 1.24345 2
    endloop
  endfacet
  facet normal 0 0 1
    outer loop
      vertex 2.42146 0.621724 2
      vertex 4.84292 1.24345 2
      vertex 4.38153 2.40877 2
    endloop
  endfacet
  facet normal 0 0 1
    outer loop
      vertex 5 0 2
      vertex 2.5 0 2
      vertex 4.84292 -1.24345 2
    endloop
  endfacet
  facet normal 0 0 1
    outer loop
      vertex 2.19077 1.20438 2
      vertex 4.38153 2.40877 2
      vertex 3.64484 3.42274 2
    endloop
  endfacet
  facet normal -0 0 1
    outer loop
      vertex 2.42146 -0.621724 2
      vertex 4.84292 -1.24345 2
      vertex 2.5 0 2
    endloop
  endfacet
  facet normal 0 0 1
    outer loop
      vertex 1.82242 1.71137 2
      vertex 3.64484 3.42274 2
      vertex 2.67913 4.22164 2
    endloop
  endfacet
  facet normal 0 0 1
    outer loop
      vertex 4.84292 -1.24345 2
      vertex 2.42146 -0.621724 2
      vertex 4.38153 -2.40877 2
    endloop
  endfacet
  facet normal -0 0 1
    outer loop
      vertex 2.19077 -1.20438 2
      vertex 4.38153 -2.40877 2
      vertex 2.42146 -0.621724 2
    endloop
  endfacet
  facet normal 0 0 1
    outer loop
      vertex 4.84292 1.24345 2
      vertex 2.42146 0.621724 2
      vertex 2.5 0 2
    endloop
  endfacet
  facet normal 0 0 1
    outer loop
      vertex 4.38153 2.40877 2
      vertex 2.19077 1.20438 2
      vertex 2.42146 0.621724 2
    endloop
  endfacet
  facet normal 0 0 1
    outer loop
      vertex 3.64484 3.42274 2
      vertex 1.82242 1.71137 2
      vertex 2.19077 1.20438 2
    endloop
  endfacet
  facet normal 0 0 1
    outer loop
      vertex 1.33957 2.11082 2
      vertex 2.67913 4.22164 2
      vertex 1.54508 4.75528 2
    endloop
  endfacet
  facet normal 0 0 1
    outer loop
      vertex 2.67913 4.22164 2
      vertex 1.33957 2.11082 2
      vertex 1.82242 1.71137 2
    endloop
  endfacet
  facet normal 0 0 1
    outer loop
      vertex 1.54508 4.75528 2
      vertex 0.772542 2.37764 2
      vertex 1.33957 2.11082 2
    endloop
  endfacet
  facet normal 0 0 1
    outer loop
      vertex 0.313952 4.99013 2
      vertex 0.772542 2.37764 2
      vertex 1.54508 4.75528 2
    endloop
  endfacet
  facet normal 0 0 1
    outer loop
      vertex 0.313952 4.99013 2
      vertex 0.156976 2.49507 2
      vertex 0.772542 2.37764 2
    endloop
  endfacet
  facet normal 0 0 1
    outer loop
      vertex 0.313952 4.99013 2
      vertex -0.468452 2.45572 2
      vertex 0.156976 2.49507 2
    endloop
  endfacet
  facet normal -0 0 1
    outer loop
      vertex -0.936906 4.91144 2
      vertex -0.468452 2.45572 2
      vertex 0.313952 4.99013 2
    endloop
  endfacet
  facet normal 0 0 1
    outer loop
      vertex -0.936906 4.91144 2
      vertex -1.06445 2.26207 2
      vertex -0.468452 2.45572 2
    endloop
  endfacet
  facet normal -0 0 1
    outer loop
      vertex -2.1289 4.52413 2
      vertex -1.06445 2.26207 2
      vertex -0.936906 4.91144 2
    endloop
  endfacet
  facet normal 0 0 1
    outer loop
      vertex -1.06445 2.26207 2
      vertex -2.1289 4.52413 2
      vertex -1.59356 1.92628 2
    endloop
  endfacet
  facet normal -0 0 1
    outer loop
      vertex -3.18712 3.85257 2
      vertex -1.59356 1.92628 2
      vertex -2.1289 4.52413 2
    endloop
  endfacet
  facet normal 0 0 1
    outer loop
      vertex -1.59356 1.92628 2
      vertex -3.18712 3.85257 2
      vertex -2.02254 1.46946 2
    endloop
  endfacet
  facet normal -0 0 1
    outer loop
      vertex -4.04508 2.93893 2
      vertex -2.02254 1.46946 2
      vertex -3.18712 3.85257 2
    endloop
  endfacet
  facet normal -0 0 1
    outer loop
      vertex -4.64888 1.84062 2
      vertex -2.32444 0.920311 2
      vertex -4.04508 2.93893 2
    endloop
  endfacet
  facet normal 0 0 1
    outer loop
      vertex -2.02254 1.46946 2
      vertex -4.04508 2.93893 2
      vertex -2.32444 0.920311 2
    endloop
  endfacet
  facet normal 0 0 1
    outer loop
      vertex 4.38153 -2.40877 2
      vertex 2.19077 -1.20438 2
      vertex 3.64484 -3.42274 2
    endloop
  endfacet
  facet normal -0 0 1
    outer loop
      vertex 1.82242 -1.71137 2
      vertex 3.64484 -3.42274 2
      vertex 2.19077 -1.20438 2
    endloop
  endfacet
  facet normal 0 0 1
    outer loop
      vertex 3.64484 -3.42274 2
      vertex 1.82242 -1.71137 2
      vertex 2.67913 -4.22164 2
    endloop
  endfacet
  facet normal -0 0 1
    outer loop
      vertex 1.33957 -2.11082 2
      vertex 2.67913 -4.22164 2
      vertex 1.82242 -1.71137 2
    endloop
  endfacet
  facet normal 0 0 1
    outer loop
      vertex 2.67913 -4.22164 2
      vertex 1.33957 -2.11082 2
      vertex 1.54508 -4.75528 2
    endloop
  endfacet
  facet normal -0 0 1
    outer loop
      vertex 0.772542 -2.37764 2
      vertex 1.54508 -4.75528 2
      vertex 1.33957 -2.11082 2
    endloop
  endfacet
  facet normal 0 0 1
    outer loop
      vertex 0.772542 -2.37764 2
      vertex 0.313952 -4.99013 2
      vertex 1.54508 -4.75528 2
    endloop
  endfacet
  facet normal -0 0 1
    outer loop
      vertex 0.156976 -2.49507 2
      vertex 0.313952 -4.99013 2
      vertex 0.772542 -2.37764 2
    endloop
  endfacet
  facet normal 0 0 1
    outer loop
      vertex -0.468452 -2.45572 2
      vertex 0.313952 -4.99013 2
      vertex 0.156976 -2.49507 2
    endloop
  endfacet
  facet normal 0 0 1
    outer loop
      vertex -0.468452 -2.45572 2
      vertex -0.936906 -4.91144 2
      vertex 0.313952 -4.99013 2
    endloop
  endfacet
  facet normal 0 0 1
    outer loop
      vertex -1.06445 -2.26207 2
      vertex -0.936906 -4.91144 2
      vertex -0.468452 -2.45572 2
    endloop
  endfacet
  facet normal 0 0 1
    outer loop
      vertex -2.1289 -4.52413 2
      vertex -1.06445 -2.26207 2
      vertex -1.59356 -1.92628 2
    endloop
  endfacet
  facet normal 0 0 1
    outer loop
      vertex -3.18712 -3.85257 2
      vertex -1.59356 -1.92628 2
      vertex -2.02254 -1.46946 2
    endloop
  endfacet
  facet normal 0 0 1
    outer loop
      vertex -1.06445 -2.26207 2
      vertex -2.1289 -4.52413 2
      vertex -0.936906 -4.91144 2
    endloop
  endfacet
  facet normal 0 0 1
    outer loop
      vertex -4.04508 -2.93893 2
      vertex -2.02254 -1.46946 2
      vertex -2.32444 -0.920311 2
    endloop
  endfacet
  facet normal 0 0 1
    outer loop
      vertex -4.64888 -1.84062 2
      vertex -2.32444 -0.920311 2
      vertex -2.48029 -0.313333 2
    endloop
  endfacet
  facet normal 0 0 1
    outer loop
      vertex -2.32444 0.920311 2
      vertex -4.64888 1.84062 2
      vertex -2.48029 0.313333 2
    endloop
  endfacet
  facet normal 0 0 1
    outer loop
      vertex -1.59356 -1.92628 2
      vertex -3.18712 -3.85257 2
      vertex -2.1289 -4.52413 2
    endloop
  endfacet
  facet normal -0 0 1
    outer loop
      vertex -4.96057 0.626666 2
      vertex -2.48029 0.313333 2
      vertex -4.64888 1.84062 2
    endloop
  endfacet
  facet normal 0 0 1
    outer loop
      vertex -2.02254 -1.46946 2
      vertex -4.04508 -2.93893 2
      vertex -3.18712 -3.85257 2
    endloop
  endfacet
  facet normal 0 0 1
    outer loop
      vertex -2.48029 0.313333 2
      vertex -4.96057 0.626666 2
      vertex -2.48029 -0.313333 2
    endloop
  endfacet
  facet normal 0 0 1
    outer loop
      vertex -2.32444 -0.920311 2
      vertex -4.64888 -1.84062 2
      vertex -4.04508 -2.93893 2
    endloop
  endfacet
  facet normal 0 0 1
    outer loop
      vertex -4.96057 -0.626666 2
      vertex -2.48029 -0.313333 2
      vertex -4.96057 0.626666 2
    endloop
  endfacet
  facet normal 0 0 1
    outer loop
      vertex -2.48029 -0.313333 2
      vertex -4.96057 -0.626666 2
      vertex -4.64888 -1.84062 2
    endloop
  endfacet
  facet normal -0.535823 -0.84433 0
    outer loop
      vertex -3.18712 -3.85257 0
      vertex -2.1289 -4.52413 2
      vertex -3.18712 -3.85257 2
    endloop
  endfacet
  facet normal -0.535823 -0.84433 -0
    outer loop
      vertex -2.1289 -4.52413 2
      vertex -3.18712 -3.85257 0
      vertex -2.1289 -4.52413 0
    endloop
  endfacet
  facet normal -0.968583 0.24869 0
    outer loop
      vertex -4.96057 0.626666 0
      vertex -4.64888 1.84062 2
      vertex -4.64888 1.84062 0
    endloop
  endfacet
  facet normal -0.968583 0.24869 0
    outer loop
      vertex -4.64888 1.84062 2
      vertex -4.96057 0.626666 0
      vertex -4.96057 0.626666 2
    endloop
  endfacet
  facet normal 1 -0 0
    outer loop
      vertex -1.19054 -0.150399 8
      vertex -1.19054 0.150399 0
      vertex -1.19054 0.150399 8
    endloop
  endfacet
  facet normal 1 0 0
    outer loop
      vertex -1.19054 0.150399 0
      vertex -1.19054 -0.150399 8
      vertex -1.19054 -0.150399 0
    endloop
  endfacet
  facet normal -0.929778 -0.36812 0
    outer loop
      vertex 1.1623 0.298428 0
      vertex 1.05157 0.578104 8
      vertex 1.05157 0.578104 0
    endloop
  endfacet
  facet normal -0.929778 -0.36812 0
    outer loop
      vertex 1.05157 0.578104 8
      vertex 1.1623 0.298428 0
      vertex 1.1623 0.298428 8
    endloop
  endfacet
  facet normal -0.992115 -0.125333 0
    outer loop
      vertex 1.2 0 0
      vertex 1.1623 0.298428 8
      vertex 1.1623 0.298428 0
    endloop
  endfacet
  facet normal -0.992115 -0.125333 0
    outer loop
      vertex 1.1623 0.298428 8
      vertex 1.2 0 0
      vertex 1.2 0 8
    endloop
  endfacet
  facet normal -0.425794 0.90482 0
    outer loop
      vertex 0.642992 -1.01319 0
      vertex 0.37082 -1.14127 8
      vertex 0.642992 -1.01319 8
    endloop
  endfacet
  facet normal -0.425794 0.90482 0
    outer loop
      vertex 0.37082 -1.14127 8
      vertex 0.642992 -1.01319 0
      vertex 0.37082 -1.14127 0
    endloop
  endfacet
  facet normal -0.425794 -0.90482 0
    outer loop
      vertex 0.37082 1.14127 0
      vertex 0.642992 1.01319 8
      vertex 0.37082 1.14127 8
    endloop
  endfacet
  facet normal -0.425794 -0.90482 -0
    outer loop
      vertex 0.642992 1.01319 8
      vertex 0.37082 1.14127 0
      vertex 0.642992 1.01319 0
    endloop
  endfacet
  facet normal 0.72897 -0.684545 0
    outer loop
      vertex -0.970819 0.705342 8
      vertex -0.764908 0.924616 0
      vertex -0.764908 0.924616 8
    endloop
  endfacet
  facet normal 0.72897 -0.684545 0
    outer loop
      vertex -0.764908 0.924616 0
      vertex -0.970819 0.705342 8
      vertex -0.970819 0.705342 0
    endloop
  endfacet
  facet normal 0.535822 -0.844331 0
    outer loop
      vertex -0.764908 0.924616 0
      vertex -0.510935 1.08579 8
      vertex -0.764908 0.924616 8
    endloop
  endfacet
  facet normal 0.535822 -0.844331 0
    outer loop
      vertex -0.510935 1.08579 8
      vertex -0.764908 0.924616 0
      vertex -0.510935 1.08579 0
    endloop
  endfacet
  facet normal -0.809013 0.587791 0
    outer loop
      vertex 0.874762 -0.821456 0
      vertex 1.05157 -0.578104 8
      vertex 1.05157 -0.578104 0
    endloop
  endfacet
  facet normal -0.809013 0.587791 0
    outer loop
      vertex 1.05157 -0.578104 8
      vertex 0.874762 -0.821456 0
      vertex 0.874762 -0.821456 8
    endloop
  endfacet
  facet normal -0.187367 -0.98229 0
    outer loop
      vertex 0.0753479 1.19763 0
      vertex 0.37082 1.14127 8
      vertex 0.0753479 1.19763 8
    endloop
  endfacet
  facet normal -0.187367 -0.98229 -0
    outer loop
      vertex 0.37082 1.14127 8
      vertex 0.0753479 1.19763 0
      vertex 0.37082 1.14127 0
    endloop
  endfacet
  facet normal 0.96858 -0.248702 0
    outer loop
      vertex -1.19054 0.150399 8
      vertex -1.11573 0.441749 0
      vertex -1.11573 0.441749 8
    endloop
  endfacet
  facet normal 0.96858 -0.248702 0
    outer loop
      vertex -1.11573 0.441749 0
      vertex -1.19054 0.150399 8
      vertex -1.19054 0.150399 0
    endloop
  endfacet
  facet normal -0.929778 0.36812 0
    outer loop
      vertex 1.05157 -0.578104 0
      vertex 1.1623 -0.298428 8
      vertex 1.1623 -0.298428 0
    endloop
  endfacet
  facet normal -0.929778 0.36812 0
    outer loop
      vertex 1.1623 -0.298428 8
      vertex 1.05157 -0.578104 0
      vertex 1.05157 -0.578104 8
    endloop
  endfacet
  facet normal -0.187367 0.98229 0
    outer loop
      vertex 0.37082 -1.14127 0
      vertex 0.0753479 -1.19763 8
      vertex 0.37082 -1.14127 8
    endloop
  endfacet
  facet normal -0.187367 0.98229 0
    outer loop
      vertex 0.0753479 -1.19763 8
      vertex 0.37082 -1.14127 0
      vertex 0.0753479 -1.19763 0
    endloop
  endfacet
  facet normal 0.0627995 0.998026 -0
    outer loop
      vertex 0.0753479 -1.19763 0
      vertex -0.224857 -1.17874 8
      vertex 0.0753479 -1.19763 8
    endloop
  endfacet
  facet normal 0.0627995 0.998026 0
    outer loop
      vertex -0.224857 -1.17874 8
      vertex 0.0753479 -1.19763 0
      vertex -0.224857 -1.17874 0
    endloop
  endfacet
  facet normal 0.535822 0.844331 -0
    outer loop
      vertex -0.510935 -1.08579 0
      vertex -0.764908 -0.924616 8
      vertex -0.510935 -1.08579 8
    endloop
  endfacet
  facet normal 0.535822 0.844331 0
    outer loop
      vertex -0.764908 -0.924616 8
      vertex -0.510935 -1.08579 0
      vertex -0.764908 -0.924616 0
    endloop
  endfacet
  facet normal -0.637418 0.770518 0
    outer loop
      vertex 0.874762 -0.821456 0
      vertex 0.642992 -1.01319 8
      vertex 0.874762 -0.821456 8
    endloop
  endfacet
  facet normal -0.637418 0.770518 0
    outer loop
      vertex 0.642992 -1.01319 8
      vertex 0.874762 -0.821456 0
      vertex 0.642992 -1.01319 0
    endloop
  endfacet
  facet normal -0.992115 0.125333 0
    outer loop
      vertex 1.1623 -0.298428 0
      vertex 1.2 0 8
      vertex 1.2 0 0
    endloop
  endfacet
  facet normal -0.992115 0.125333 0
    outer loop
      vertex 1.2 0 8
      vertex 1.1623 -0.298428 0
      vertex 1.1623 -0.298428 8
    endloop
  endfacet
  facet normal 0.30901 -0.951059 0
    outer loop
      vertex -0.510935 1.08579 0
      vertex -0.224857 1.17874 8
      vertex -0.510935 1.08579 8
    endloop
  endfacet
  facet normal 0.30901 -0.951059 0
    outer loop
      vertex -0.224857 1.17874 8
      vertex -0.510935 1.08579 0
      vertex -0.224857 1.17874 0
    endloop
  endfacet
  facet normal 0.72897 0.684545 0
    outer loop
      vertex -0.764908 -0.924616 8
      vertex -0.970819 -0.705342 0
      vertex -0.970819 -0.705342 8
    endloop
  endfacet
  facet normal 0.72897 0.684545 0
    outer loop
      vertex -0.970819 -0.705342 0
      vertex -0.764908 -0.924616 8
      vertex -0.764908 -0.924616 0
    endloop
  endfacet
  facet normal 0.30901 0.951059 -0
    outer loop
      vertex -0.224857 -1.17874 0
      vertex -0.510935 -1.08579 8
      vertex -0.224857 -1.17874 8
    endloop
  endfacet
  facet normal 0.30901 0.951059 0
    outer loop
      vertex -0.510935 -1.08579 8
      vertex -0.224857 -1.17874 0
      vertex -0.510935 -1.08579 0
    endloop
  endfacet
  facet normal 0.876307 -0.481752 0
    outer loop
      vertex -1.11573 0.441749 8
      vertex -0.970819 0.705342 0
      vertex -0.970819 0.705342 8
    endloop
  endfacet
  facet normal 0.876307 -0.481752 0
    outer loop
      vertex -0.970819 0.705342 0
      vertex -1.11573 0.441749 8
      vertex -1.11573 0.441749 0
    endloop
  endfacet
  facet normal -0.637418 -0.770518 0
    outer loop
      vertex 0.642992 1.01319 0
      vertex 0.874762 0.821456 8
      vertex 0.642992 1.01319 8
    endloop
  endfacet
  facet normal -0.637418 -0.770518 -0
    outer loop
      vertex 0.874762 0.821456 8
      vertex 0.642992 1.01319 0
      vertex 0.874762 0.821456 0
    endloop
  endfacet
  facet normal 0.0627995 -0.998026 0
    outer loop
      vertex -0.224857 1.17874 0
      vertex 0.0753479 1.19763 8
      vertex -0.224857 1.17874 8
    endloop
  endfacet
  facet normal 0.0627995 -0.998026 0
    outer loop
      vertex 0.0753479 1.19763 8
      vertex -0.224857 1.17874 0
      vertex 0.0753479 1.19763 0
    endloop
  endfacet
  facet normal -0.809013 -0.587791 0
    outer loop
      vertex 1.05157 0.578104 0
      vertex 0.874762 0.821456 8
      vertex 0.874762 0.821456 0
    endloop
  endfacet
  facet normal -0.809013 -0.587791 0
    outer loop
      vertex 0.874762 0.821456 8
      vertex 1.05157 0.578104 0
      vertex 1.05157 0.578104 8
    endloop
  endfacet
  facet normal 0.96858 0.248702 0
    outer loop
      vertex -1.11573 -0.441749 8
      vertex -1.19054 -0.150399 0
      vertex -1.19054 -0.150399 8
    endloop
  endfacet
  facet normal 0.96858 0.248702 0
    outer loop
      vertex -1.19054 -0.150399 0
      vertex -1.11573 -0.441749 8
      vertex -1.11573 -0.441749 0
    endloop
  endfacet
  facet normal 0.876307 0.481752 0
    outer loop
      vertex -0.970819 -0.705342 8
      vertex -1.11573 -0.441749 0
      vertex -1.11573 -0.441749 8
    endloop
  endfacet
  facet normal 0.876307 0.481752 0
    outer loop
      vertex -1.11573 -0.441749 0
      vertex -0.970819 -0.705342 8
      vertex -0.970819 -0.705342 0
    endloop
  endfacet
endsolid OpenSCAD_Model
