solid OpenSCAD_Model
  facet normal 1 -0 0
    outer loop
      vertex 10 0 13.2228
      vertex 10 2.5 0
      vertex 10 2.5 13.2228
    endloop
  endfacet
  facet normal 1 0 0
    outer loop
      vertex 10 2.5 0
      vertex 10 0 13.2228
      vertex 10 0 0
    endloop
  endfacet
  facet normal -0 0 1
    outer loop
      vertex 0 2.5 25
      vertex 7.71074 0 25
      vertex 7.71074 2.5 25
    endloop
  endfacet
  facet normal 0 0 1
    outer loop
      vertex 7.71074 0 25
      vertex 0 2.5 25
      vertex 0 0 25
    endloop
  endfacet
  facet normal 0 0 -1
    outer loop
      vertex 0 0 0
      vertex 10 2.5 0
      vertex 10 0 0
    endloop
  endfacet
  facet normal -0 0 -1
    outer loop
      vertex 10 2.5 0
      vertex 0 0 0
      vertex 0 2.5 0
    endloop
  endfacet
  facet normal -1 0 0
    outer loop
      vertex 0 0 0
      vertex 0 2.5 25
      vertex 0 2.5 0
    endloop
  endfacet
  facet normal -1 -0 0
    outer loop
      vertex 0 2.5 25
      vertex 0 0 0
      vertex 0 0 25
    endloop
  endfacet
  facet normal 0 1 0
    outer loop
      vertex 10 2.5 13.2228
      vertex 0 2.5 25
      vertex 7.71074 2.5 25
    endloop
  endfacet
  facet normal 0 1 0
    outer loop
      vertex 0 2.5 0
      vertex 10 2.5 13.2228
      vertex 10 2.5 0
    endloop
  endfacet
  facet normal 0 1 0
    outer loop
      vertex 10 2.5 13.2228
      vertex 0 2.5 0
      vertex 0 2.5 25
    endloop
  endfacet
  facet normal 0 -1 0
    outer loop
      vertex 0 0 25
      vertex 10 0 13.2228
      vertex 7.71074 0 25
    endloop
  endfacet
  facet normal 0 -1 0
    outer loop
      vertex 0 0 0
      vertex 10 0 13.2228
      vertex 0 0 25
    endloop
  endfacet
  facet normal 0 -1 -0
    outer loop
      vertex 10 0 13.2228
      vertex 0 0 0
      vertex 10 0 0
    endloop
  endfacet
  facet normal 0.981627 -0 0.190809
    outer loop
      vertex 7.71074 0 25
      vertex 10 2.5 13.2228
      vertex 7.71074 2.5 25
    endloop
  endfacet
  facet normal 0.981627 0 0.190809
    outer loop
      vertex 10 2.5 13.2228
      vertex 7.71074 0 25
      vertex 10 0 13.2228
    endloop
  endfacet
endsolid OpenSCAD_Model
